<?xml version="1.0" encoding="UTF-8"?>
<svg id="Layer_1" data-name="Layer 1" xmlns="http://www.w3.org/2000/svg" viewBox="0 0 2497.31 2231.2">
  <defs>
    <style>
      .cls-1 {
        fill: #19344f;
      }

      .cls-2 {
        fill: #276bb5;
      }

      .cls-3 {
        fill: #e1372c;
      }

      .cls-4 {
        fill: #3ba462;
      }

      .cls-5 {
        fill: #f6be17;
      }
    </style>
  </defs>
  <path class="cls-1" d="M394.16,191.9l-2.12.06,2.12-.06Z"/>
  <path class="cls-3" d="M565.61,191.9l8.37.09,13.73.66-1.69,126.23c-.04,2.99-2.5,5.38-5.49,5.34-.08,0-.16,0-.24,0-24.32-1.47-54.07-2.43-89.26-2.87-2.67-.04-4.94.5-6.79,1.6-.41.24-.88.37-1.35.37l-26.42-.11c-.98-.02-1.79.78-1.8,1.78-.08,10.22-.56,22.83-1.46,37.83-.75,12.76-.6,26.31.43,40.63,2.18,30.38.34,65.31-.77,91.44-.11,2.72-2.35,4.87-5.07,4.87l-165.2.29c-3.02,0-5.47,2.45-5.47,5.47,0,.03,0,.06,0,.09.32,26.15.41,49,.26,68.54-.06,5.27-1.22,8.64-3.5,10.12-.72.45-1.52.77-2.35.95-5.81,1.18-10.5,1.82-14.07,1.92-31.44.8-67.4,1.03-107.86.69.27-69.5-.36-139.01-1.89-208.53-.27-12.65.67-26.76,2.81-42.35,1.11-8.12,5.92-12.21,14.44-12.26,7.62-.06,15.02-.11,22.18-.17,2.65-.02,4.8-2.16,4.81-4.81l.2-39.17c0-1.36,1.1-2.46,2.46-2.46l79.92-.14c1.8,0,3.33-1.3,3.61-3.07,1.28-8.1,2.29-16.95,3.04-26.54.38-5.01,2.83-8.3,7.34-9.89,6.51-2.29,13.11-3.53,19.8-3.73,8.62-.25,27.71-.18,57.28.2,1.25.02,2.28-1,2.29-2.26h0s.2-11.78.2-11.78l.14-1.92.8-18.88c.13-3.28,2.66-5.98,5.96-6.33l17.05-1.75,2.12-.06h171.45Z"/>
  <path class="cls-1" d="M573.97,191.98l-8.37-.09,8.37.09Z"/>
  <path class="cls-2" d="M648.88,192.44c3.23,3.38,8.72,3.3,16.48-.23l90.21,1.32,29.14-.06,106.14-.4c1.28,0,2.32,1.03,2.35,2.32l.72,35.48.09,2.41c.34,1.85,1.64,2.78,3.9,2.78,10.79.06,21.57-.02,32.32-.23l10.06-.23,48.8-.11-3.67,173.68c-1.95,29.94-2.52,59.62-1.72,89.06.02.64.54,1.15,1.18,1.15l80.72-.77c1.55-.19,2.88-.12,3.98.2,1.29.37,2.18,1.54,2.18,2.87l.11,81.64c.02,2.2,1.81,3.98,4.01,3.98l253.2-.43c1.43,0,2.62,1.12,2.69,2.55,1.47,23.38,2.6,48.32,3.38,74.82.08,2.48,1.25,5.29,3.52,8.42-2.25.55-3.39,2.09-3.41,4.61-.4,85.74-.45,171.48-.14,257.21.42,1.93-.26,3.42-2.03,4.47-.24.13-.51.2-.77.2-8-.04-24.58-.32-49.72-.83-7.25-.17-17.54.75-24.53.6-60.43-1.13-119.59-.58-177.49,1.63-.1.02-2.25.44-6.48,1.26-1.74.33-3.42-.81-3.76-2.55-.03-.16-.05-.33-.06-.49-.94-24.3-.93-52.56.03-84.79,0-.02.01-.03.03-.03s.03.01.03.03c.02.04.04.07.06.09.07.11.11.24.11.37.13,3.38.21,6.76.23,10.14.02,0,.04,0,.06.03.55-53.7,1.01-116.41,1.38-188.12,0-2.55-2.06-4.61-4.61-4.61-.03,0-.06,0-.09,0-84,2.02-168.64,2.06-253.92.11-2.58-.06-4.64-2.14-4.67-4.7l-1.86-129.55c.55-2.6.45-5.01-.32-7.25l-.52-29.46c-.02-.93-.78-1.68-1.72-1.69l-182.28-.97c-.92.25-1.9.28-2.95.09l-25.62.8c-2.69.07-4.85,2.24-4.96,4.96-1.26,38.32-1.69,77-1.29,116.03.14,14.47-1.17,30.58-2.64,44.79-.38,3.61-1.88,5.99-4.5,7.14-.4.17-.84.26-1.29.26l-120.53.66c-2.82.02-5.1,2.3-5.13,5.13-.29,22.77-.22,46.11.2,70.01.08,4.47.5,9.07,1.26,13.81l.11,85.39c0,.95-.52,1.82-1.35,2.26-2.18,1.17-5.22,1.82-9.14,1.98-36.93,1.39-75.26,1.67-114.99.83-16.59-.34-30.81,1.4-47.14,2.15-2.12.11-3.79,1.86-3.78,3.98l.14,77.08c0,1.59-1.16,2.94-2.72,3.21-4.62.76-11.98,1.22-22.06,1.38-34.86.48-69.75.61-104.65.4l.11-342.29c.46-1.32.53-2.93.23-4.84l.03-5.76c40.46.34,76.42.11,107.86-.69,3.57-.1,8.26-.74,14.07-1.92.83-.17,1.63-.49,2.35-.95,2.27-1.47,3.44-4.84,3.5-10.12.15-19.54.07-42.39-.26-68.54-.05-3.02,2.36-5.51,5.39-5.56.03,0,.06,0,.09,0l165.2-.29c2.72,0,4.96-2.15,5.07-4.87,1.12-26.13,2.95-61.07.77-91.44-1.03-14.33-1.17-27.87-.43-40.63.9-15,1.38-27.6,1.46-37.83.02-1,.82-1.79,1.8-1.78l26.42.11c.47,0,.93-.13,1.35-.37,1.85-1.11,4.12-1.64,6.79-1.6,35.19.44,64.94,1.39,89.26,2.87,2.99.17,5.55-2.1,5.72-5.09,0-.08,0-.16,0-.24l1.69-126.23,61.18-.2ZM719.66,331.14c-.99,21.76.26,46.33,3.75,73.7.25,1.98,1.93,3.45,3.93,3.44l71.41-.11c2.4,0,4.45-1.77,4.81-4.16,3.78-25.03,5.2-51.37,4.24-79.03-.04-1.47-1.21-2.66-2.69-2.75-25.05-1.43-54.88.43-75.51.92-4.3.11-7.34,1.8-9.11,5.04-.49.9-.77,1.91-.83,2.95ZM362.98,673.46c-17.75-.42-37.64-.31-59.69.34-4.2.11-9.66.63-16.36,1.55-6.39.86-7.31,3.55-7.79,9.83-1.81,23.69-1.78,45.02.11,63.99.57,5.65,3.54,9.04,8.91,10.14,22.81,4.68,46.1,6.05,69.86,4.1.98-.09,1.8-.79,2.06-1.75,7.22-27.25,6.02-52.58,5.9-85.14,0-1.67-1.34-3.03-3.01-3.07ZM1171.5,761.23l-6.99.4c-1.05.32-1.66.76-1.83,1.32-.9,2.66-1.16,5.83-.8,9.51-.38,1.62-.34,3.14.14,4.56l-1.83,74.71c-.06,2.28,1.74,4.18,4.04,4.24.04,0,.08,0,.12,0l79.92-.14c2.41,0,4.37-1.95,4.38-4.36l.4-84.73c0-2.06-1.39-3.86-3.38-4.38-3.06-.8-6.74-1.3-11.06-1.49-21.11-.88-42.14-.75-63.1.37ZM1068.71,933.88c-.57,2.75.31,4.88,2.64,6.39h.03c.65.38,1.18.51,1.6.37.09-.01.16-.11.14-.22,0,0,0,0,0,0l-1.06-6.45c-.16-.93-1.05-1.57-1.97-1.42-.7.11-1.25.64-1.38,1.33Z"/>
  <path class="cls-1" d="M665.36,192.21c-7.76,3.53-13.25,3.61-16.48.23l16.48-.23Z"/>
  <path class="cls-1" d="M784.71,193.47l-29.14.06,29.14-.06Z"/>
  <path class="cls-1" d="M368.23,218.92l-.14,1.92.14-1.92Z"/>
  <path class="cls-1" d="M894,233.28l-.09-2.41.09,2.41Z"/>
  <path class="cls-1" d="M940.28,235.6l-10.06.23,10.06-.23Z"/>
  <path class="cls-4" d="M1689.91,412.2c-.27,59.24-.68,118.23-1.23,176.98-.23,22.73.23,50.63,1.38,83.7-.04.38-.49.78-1.35,1.2l-350.03-1.43c-2.27-3.13-3.45-5.94-3.52-8.42-.78-26.5-1.91-51.44-3.38-74.82-.08-1.43-1.26-2.55-2.69-2.55l-253.2.43c-2.2,0-4-1.78-4.01-3.98l-.11-81.64c0-1.33-.89-2.5-2.18-2.87-1.11-.32-2.44-.39-3.98-.2,1.32.1,2.45,0,3.38-.29.87-.28,1.46-1.08,1.46-1.98l.4-84.68c.02-1.38-1.05-2.52-2.41-2.58-26.99-1.38-54.67-1.35-83.02.09l3.67-173.68c19.16.29,38.38,1.02,57.65,2.21,8.43.52,14.8,1.23,19.11,2.15,1.84.4,3.15,2.03,3.15,3.9l.06,32.81c0,1.35,1.08,2.44,2.41,2.44,0,0,.02,0,.03,0,52.73-.55,103.33-.46,151.82.29,6.9.1,13.08,1.87,18.54,5.33,1.03.65,1.69,1.75,1.78,2.95l2.81,32.18c.19,2.18,2.02,3.86,4.21,3.87,64.86.02,108.94-.11,132.25-.37,11.71-.11,21.48.79,29.31,2.72,6.39,1.55,7.57,6.42,8.25,12.35,1.13,9.7,1.74,19.52,1.83,29.46.02,1.08.9,1.95,1.98,1.95,59.51-.19,106.87-.23,142.08-.11,7.78.04,16.63.5,26.56,1.38,2.13.19,3.82,1.88,4.01,4.01l2.89,33.3c.15,1.64,1.51,2.9,3.15,2.92l86.94,1ZM1251.82,495.19c1.03,1.03,2.08,1.6,3.15,1.69,29.76,2.71,55.1,3.39,76.02,2.03,3.29-.21,5.07-2.54,5.36-6.99,1.57-24.66,1.56-50.23-.03-76.71-.04-.84-.37-1.58-1-2.21s-1.37-.98-2.21-1.06c-26.44-1.99-52.01-2.4-76.71-1.23-4.45.23-6.8,1.99-7.05,5.27-1.68,20.9-1.4,46.25.83,76.05.08,1.07.62,2.12,1.63,3.15Z"/>
  <path class="cls-5" d="M2347.68,585.6l-125.23,1.98c-2.28.05-4.09,1.93-4.04,4.21,0,.02,0,.04,0,.06l2.64,77.71c.08,2.2-1.64,4.04-3.84,4.12-.06,0-.12,0-.17,0l-86.25-.4c-.95-.02-1.73.75-1.75,1.72v.03l.14,83.5c0,1.42-1.15,2.58-2.58,2.58l-80.32-.4c-2.99-.02-5.4-2.45-5.39-5.44l.37-78.69c.02-1.66-1.32-3.02-2.98-3.04,0,0-.02,0-.03,0l-348.2-.66c-1.15-33.07-1.6-60.97-1.38-83.7.55-58.74.96-117.74,1.23-176.98,14.27-.11,28.68-.37,43.21-.77,86.83-2.41,176.35-.69,273.75.6,36.3.48,66.39.35,90.27-.37,12.32-.38,20.13-1.03,23.41-1.95,3.61-.99,5.96-4.11,7.05-9.34.76-3.67,1.98-12.71,3.64-27.14.34-3.13,2.93-5.52,6.08-5.62l74.08-2.52c2.92-.1,5.37-2.27,5.82-5.16l4.47-29.63c.43-2.87,2.86-5.01,5.76-5.07,38.11-.76,60.14-1.27,66.08-1.52,4.3-.17,8.44-.75,12.44-1.75,1.92-.47,3.27-2.18,3.27-4.13l.17-35.05c.01-2.12,1.48-3.95,3.55-4.44,7.54-1.78,18.51-1.81,25.39-.69,7.55,1.24,11.32,6.71,11.32,16.39.06,36.64-.1,71.26-.46,103.85-.95,84.71-1.04,145.12-.26,181.25.06,2.58-.36,4.73-1.26,6.45ZM2129.14,504.71c0-2.34-1.91-4.24-4.25-4.23h0l-78.06.14c-2.34,0-4.24,1.91-4.23,4.25l.14,77.37c0,2.34,1.91,4.24,4.25,4.23l78.06-.14c2.34,0,4.24-1.91,4.23-4.25l-.13-77.37Z"/>
  <path class="cls-4" d="M720.49,328.19c1.78-3.25,4.81-4.93,9.11-5.04,20.63-.49,50.46-2.35,75.51-.92,1.48.09,2.65,1.28,2.69,2.75.95,27.66-.46,54.01-4.24,79.03-.37,2.39-2.41,4.15-4.81,4.16l-71.41.11c-1.99.02-3.68-1.46-3.93-3.44-3.5-27.38-4.75-51.94-3.75-73.7.06-1.04.34-2.05.83-2.95Z"/>
  <path class="cls-5" d="M1065.59,498.6l-80.72.77c-.64,0-1.16-.51-1.18-1.15-.8-29.44-.23-59.13,1.72-89.06,28.35-1.43,56.02-1.46,83.02-.09,1.36.06,2.42,1.2,2.41,2.58l-.4,84.68c0,.9-.59,1.7-1.46,1.98-.94.29-2.06.38-3.38.29Z"/>
  <path class="cls-3" d="M1251.82,495.19c-1.01-1.03-1.56-2.08-1.63-3.15-2.24-29.8-2.51-55.15-.83-76.05.25-3.29,2.6-5.04,7.05-5.27,24.7-1.17,50.27-.75,76.71,1.23.84.08,1.58.43,2.21,1.06s.96,1.37,1,2.21c1.59,26.48,1.6,52.05.03,76.71-.29,4.45-2.07,6.78-5.36,6.99-20.92,1.36-46.26.68-76.02-2.03-1.07-.1-2.12-.66-3.15-1.69Z"/>
  <path class="cls-3" d="M806.74,530.49l.32,7.25,1.86,129.55c.03,2.56,2.1,4.64,4.67,4.7,85.28,1.95,169.92,1.91,253.92-.11,2.55-.05,4.65,1.98,4.7,4.53,0,.03,0,.06,0,.09-.36,71.72-.82,134.42-1.38,188.12-.02-.02-.04-.03-.06-.03-.02-3.38-.1-6.76-.23-10.14,0-.13-.04-.26-.11-.37-.02-.02-.04-.05-.06-.09,0-.02-.01-.03-.03-.03s-.03.01-.03.03c-.95,32.23-.96,60.49-.03,84.79.06,1.77,1.55,3.16,3.32,3.09.16,0,.33-.02.49-.06,4.22-.82,6.38-1.24,6.48-1.26,57.9-2.22,117.07-2.76,177.49-1.63,6.99.14,17.28-.77,24.53-.6,25.14.52,41.71.79,49.72.83.26,0,.53-.07.77-.2,1.78-1.05,2.45-2.54,2.03-4.47-.25,2.73.39,4.13,1.92,4.18,47.49,1.87,75.54,2.79,84.13,2.75,1.76,0,3.18,1.42,3.18,3.18v256.12c0,1.49-1.15,2.72-2.64,2.81-27.83,1.81-55.64,2.28-83.42,1.4-.36-.02-.72.03-1.06.14-1.83.55-2.27,1.39-1.32,2.52l-2.29-2.41c-.63-.66-1.48-1.06-2.38-1.12-25.5-1.6-51.47-1.86-77.89-.77-2.6.09-4.66,2.22-4.67,4.81l-.34,76.51c-.02,2.67-2.18,4.84-4.87,4.87l-173.11,1.32-.75-171.56c0-1.13-.75-2.13-1.83-2.46-2.94-.9-6.56-1.35-10.86-1.35-25.66.04-50.28.19-73.87.46.96-56.09,1.28-111.83.97-167.23-.04-4.93-2.25-7.7-6.65-8.31-13.1-1.81-26.94-2.54-41.49-2.18-43.6,1.05-84.24,1.06-121.93.03-2.82-.09-5.1-2.34-5.22-5.16-2.12-52.53-.86-104.45-.86-161.9,0-4.37-.95-7.31-2.87-8.8-.73-.6-1.62-.97-2.55-1.06-7.78-.9-18.47-1.26-32.09-1.09-63.39.78-126.38.96-188.98.52-43.9-.32-84.42.52-126.6,1.32-.76-4.74-1.18-9.34-1.26-13.81-.42-23.9-.49-47.23-.2-70.01.03-2.83,2.31-5.11,5.13-5.13l120.53-.66c.45,0,.89-.09,1.29-.26,2.62-1.15,4.12-3.52,4.5-7.14,1.46-14.21,2.78-30.32,2.64-44.79-.4-39.03.03-77.7,1.29-116.03.1-2.71,2.27-4.88,4.96-4.96l25.62-.8c1.03.75,2.02.72,2.95-.09l182.28.97c.94.01,1.7.76,1.72,1.69l.52,29.46Z"/>
  <path class="cls-4" d="M622.23,498.37c-.94.8-1.92.83-2.95.09,1.05.19,2.04.16,2.95-.09Z"/>
  <path class="cls-2" d="M2129.27,582.08c0,2.34-1.89,4.24-4.23,4.25l-78.06.14c-2.34,0-4.24-1.89-4.25-4.23l-.14-77.37c0-2.34,1.89-4.24,4.23-4.25l78.06-.14c2.34,0,4.24,1.89,4.25,4.23h0s.13,77.37.13,77.37Z"/>
  <path class="cls-4" d="M807.06,537.74l-.32-7.25c.76,2.24.87,4.65.32,7.25Z"/>
  <path class="cls-4" d="M2347.68,585.6c-.21,77.62-.21,155.25,0,232.88.09,31.12-1.35,62.84-2.18,94.28l-.4,21.86c.29,1.51.22,3.18-.2,5.01-35.55-.46-71.09-.8-106.63-1.03-4.62-.04-8.39.48-11.29,1.55-3.01,1.09-5.06,3.9-5.19,7.11-1.2,29.72.92,75.99-.34,112.62-1.01,28.9-1.47,44.69-1.38,47.37.15,4.89-2.18,7.35-6.99,7.39-61.55.42-116.64,1.09-165.26,2.01-2.98.06-5.37,2.5-5.39,5.5l-.37,76.85c0,2.01-1.54,3.69-3.55,3.87l-5.1.49c-.27.02-.54.02-.8,0-18.61-1.34-38.44-1.68-59.49-1.03-4.6.13-22.12.68-52.55,1.63-1.76.06-3.63.15-5.62.29-2.5.17-4.45,2.25-4.44,4.76l.14,77.66c0,1.76-1.43,3.18-3.19,3.17-.11,0-.22,0-.33-.02-13.41-1.45-28.01-1.8-43.79-1.03-49.32,2.44-98.17,1.6-149.64,2.66-.8.02-4.98-.11-12.52-.37-4.24-.15-8.42.04-12.55.57-.89,1.32-.86,2.09-.89,3.5v-1.4c0-2.09-1.69-3.78-3.78-3.78-.03,0-.06,0-.09,0l-79.66,1.6c-1.23.03-2.22,1.02-2.24,2.24-.59,26.69-.55,51.65.11,74.88.11,4.09-2.07,6.18-6.56,6.28-21.99.48-44.63,1.42-67.91,2.84-5.1.32-9.71.24-13.84-.26-1.43-.16-2.72.86-2.88,2.27,0,.07-.01.15-.02.22-.63,23.13-.83,47-.6,71.61.04,4.03-.51,7.69-1.63,10.98-.39,1.08-1.33,1.88-2.46,2.09-12.05,2.2-24.25,3.36-36.59,3.5-44.97.5-88.64.53-131.01.09-2.87-.03-5.17-2.37-5.16-5.24l.4-81.58c0-2.03-1.61-3.71-3.64-3.78-20.69-.76-42.28-.39-64.76,1.12-3.29.21-6.93.82-10.92,1.83-3.69.92-5.63,3.55-5.82,7.91-1.18,25.6-1.13,51.95.17,79.06.05,1.01.89,1.81,1.92,1.81l78.43-.11c1.68-.02,3.06,1.32,3.12,3.01.55,12.88.79,28.37.72,46.48-.04,8.5.43,23.97,1.4,46.39,1.09,25.56,1.05,51.03-.11,76.4-9.2.46-18.4,2.24-26.99,2.26-78.48.27-156.95.64-235.41,1.12l-2.64-84.22c-.05-1.41-1.2-2.52-2.61-2.52l-254.86-1.23c-1.63,0-2.96-1.33-2.98-2.98-.2-36.74-1.92-77.51-1.75-120.21.21-54.73.21-101.34,0-139.81,0-1.22.98-2.22,2.21-2.24l261.08-.92,173.11-1.32c2.69-.03,4.86-2.2,4.87-4.87l.34-76.51c.01-2.6,2.08-4.72,4.67-4.81,26.42-1.09,52.38-.83,77.89.77.9.06,1.75.45,2.38,1.12l2.29,2.41-.32,80.21c0,1.66,1.35,3.01,3.01,3.01h0l260.97,1.26c.82,0,1.49-.67,1.49-1.49l-.43-260.77c0-.57.46-1.03,1.03-1.03h0l85.94.43c1.23,0,2.24-1,2.24-2.24h0s-.57-351.98-.57-351.98c0-.11-.04-.22-.11-.29l-.46-.63c.86-.42,1.31-.82,1.35-1.2l348.2.66c1.66,0,3.01,1.35,3.01,3.01v.03l-.37,78.69c-.02,2.99,2.4,5.43,5.39,5.44l80.32.4c1.42,0,2.58-1.15,2.58-2.58l-.14-83.5c0-.97.77-1.75,1.72-1.75,0,0,.02,0,.03,0l86.25.4c2.2.02,4-1.75,4.01-3.95,0-.06,0-.12,0-.17l-2.64-77.71c-.08-2.28,1.7-4.19,3.98-4.27.02,0,.04,0,.06,0l125.23-1.98ZM2132.16,860.67c.4.23.61.35.63.37.17.11.15.42-.06.92-.63,1.51-.98,3.48-1.06,5.9-.99,31.92-1.28,52.57-.86,61.95.03.79.46,1.51,1.15,1.92,9.66,5.99,28.2,7.05,39.69,7.28,14.81.32,37.71,2.41,45.36-2.81.93-.62,1.54-1.61,1.66-2.72,1.95-17.35,3.5-36.34,4.64-57,.42-7.47.13-14.35-.86-20.63-.38-2.36-2.42-4.1-4.84-4.13-28.41-.02-56.87,2.85-85.39,8.6-.1-.02-.18.05-.2.14-.02.09.05.18.14.2ZM1908.36,943.51c-.38-1.27-1.48-2.2-2.81-2.38-26.36-3.36-52.76-3.09-79.2.8-3.11.47-5.42,3.14-5.44,6.3l-.34,72.13c-.02,2.27,1.74,4.16,4.01,4.33,29.37,2.09,55.99,4.04,81.7,2.18,2.58-.2,4.57-2.37,4.53-4.96-.04-1.78-.24-23.51-.6-65.19-.04-4.93-.65-9.33-1.83-13.21ZM984.32,1385.16c-.03-4.3-3.54-7.77-7.85-7.74l-73.47.51c-4.3.03-7.77,3.54-7.74,7.85l.52,75.19c.03,4.3,3.54,7.77,7.85,7.74h0l73.47-.51c4.3-.03,7.77-3.54,7.74-7.85l-.53-75.19Z"/>
  <path class="cls-1" d="M149.55,593.57c.31,1.91.23,3.52-.23,4.84.34-1.51.42-3.12.23-4.84Z"/>
  <path class="cls-5" d="M1688.71,674.09l.46.63c.07.07.11.17.11.29l.57,351.98c0,1.23-1,2.24-2.24,2.24h0l-85.94-.43c-.57,0-1.03.46-1.03,1.03h0s.43,260.77.43,260.77c0,.82-.67,1.49-1.49,1.49l-260.97-1.26c-1.66,0-3.01-1.35-3.01-3.01h0s.32-80.21.32-80.21c-.96-1.13-.52-1.97,1.32-2.52.34-.11.7-.16,1.06-.14,27.78.88,55.58.41,83.42-1.4,1.48-.09,2.64-1.32,2.64-2.81v-256.12c0-1.76-1.42-3.18-3.18-3.18-8.6.04-36.64-.88-84.13-2.75-1.53-.06-2.17-1.45-1.92-4.18-.31-85.74-.26-171.48.14-257.21.02-2.52,1.16-4.06,3.41-4.61l350.03,1.43ZM1600.87,766.4c0-2.39-1.94-4.32-4.33-4.32h0l-81.32.14c-2.39,0-4.32,1.94-4.32,4.33l.14,81.32c0,2.39,1.94,4.32,4.33,4.32l81.33-.14c2.39,0,4.32-1.94,4.32-4.33l-.14-81.32Z"/>
  <path class="cls-4" d="M362.98,673.46c1.67.03,3.01,1.4,3.01,3.07.11,32.55,1.32,57.88-5.9,85.14-.26.96-1.08,1.66-2.06,1.75-23.77,1.95-47.05.58-69.86-4.1-5.37-1.11-8.34-4.49-8.91-10.14-1.89-18.97-1.93-40.3-.11-63.99.49-6.28,1.4-8.97,7.79-9.83,6.71-.92,12.16-1.43,16.36-1.55,22.05-.65,41.94-.76,59.69-.34Z"/>
  <path class="cls-4" d="M983.06,1115.9l-174.83-.77c1.66-1.7,2.02-3.17,1.06-4.41-.94-1.22-1.42-2.65-1.46-4.27-.53-23.77-1.33-49.09-2.38-75.97-.03-1.04-.85-1.88-1.89-1.92-27.13-1.36-55.03-.98-83.7,1.12-.8.06-1.42.72-1.43,1.52-.06,2.46-.43,3.14-1.12,2.03-.13-3.25-4.89-4.64-14.27-4.18-1.81.1-22.83-.33-63.04-1.29-18.68-.44-34.62-.59-47.8-.46-1.85.01-3.36,1.48-3.41,3.32l-2.72,82.39c-.06,1.64-1.41,2.94-3.04,2.92l-302.32-1.43c-1.38,0-2.49,1.12-2.49,2.49l-.83,170.64c0,1.65-1.3,3.02-2.95,3.09-41.11,1.99-82.64,2.24-124.6.77l-.63-350.8c34.9.21,69.79.08,104.65-.4,10.09-.15,17.44-.61,22.06-1.38,1.57-.26,2.72-1.62,2.72-3.21l-.14-77.08c0-2.12,1.66-3.88,3.78-3.98,16.33-.75,30.55-2.49,47.14-2.15,39.74.84,78.07.56,114.99-.83,3.92-.15,6.96-.81,9.14-1.98.83-.44,1.35-1.31,1.35-2.26l-.11-85.39c42.18-.8,82.7-1.63,126.6-1.32,62.6.44,125.6.27,188.98-.52,13.62-.17,24.32.19,32.09,1.09.93.09,1.82.46,2.55,1.06,1.91,1.49,2.87,4.42,2.87,8.8,0,57.45-1.26,109.38.86,161.9.12,2.82,2.39,5.07,5.22,5.16,37.69,1.03,78.34,1.02,121.93-.03,14.56-.36,28.39.36,41.49,2.18,4.39.61,6.61,3.38,6.65,8.31.31,55.4-.02,111.15-.97,167.23ZM537.72,941.1c-6.04-1.2-12.54-1.86-19.51-1.98-19.93-.34-39.71.14-59.35,1.46-2.1.15-3.74,1.85-3.81,3.95l-2.52,76.2c-.07,2.17,1.57,4.03,3.75,4.24,24.24,2.16,48.23,3.22,71.95,3.18,5.62-.02,9.58-.42,11.89-1.2,2.37-.8,3.93-3.05,3.84-5.53l-2.58-75.97c-.06-2.12-1.58-3.92-3.67-4.36Z"/>
  <path class="cls-5" d="M1162.02,777.02l-.14-4.56c-.36-3.69-.1-6.86.8-9.51.17-.55.78-.99,1.83-1.32,2.62.42,4.95.29,6.99-.4,20.96-1.13,41.99-1.25,63.1-.37,4.32.19,8,.69,11.06,1.49,1.99.52,3.38,2.32,3.38,4.38l-.4,84.73c-.02,2.41-1.97,4.36-4.38,4.36l-79.92.14c-2.29,0-4.16-1.85-4.16-4.13,0-.04,0-.08,0-.12l1.83-74.71Z"/>
  <path class="cls-3" d="M1171.5,761.23c-2.04.69-4.37.82-6.99.4l6.99-.4Z"/>
  <path class="cls-2" d="M1601.01,847.72c0,2.39-1.93,4.33-4.32,4.33l-81.33.14c-2.39,0-4.33-1.93-4.33-4.32l-.14-81.32c0-2.39,1.93-4.33,4.32-4.33l81.32-.14c2.39,0,4.33,1.93,4.33,4.32h0s.14,81.32.14,81.32Z"/>
  <path class="cls-4" d="M1162.02,777.02c-.48-1.41-.53-2.93-.14-4.56l.14,4.56Z"/>
  <path class="cls-2" d="M2132.21,860.32c28.52-5.75,56.99-8.62,85.39-8.6,2.42.02,4.46,1.77,4.84,4.13.99,6.29,1.28,13.16.86,20.63-1.15,20.65-2.69,39.65-4.64,57-.13,1.11-.73,2.1-1.66,2.72-7.65,5.22-30.55,3.12-45.36,2.81-11.49-.23-30.03-1.29-39.69-7.28-.68-.41-1.11-1.13-1.15-1.92-.42-9.38-.13-30.03.86-61.95.08-2.43.43-4.39,1.06-5.9.21-.5.23-.8.06-.92-.02-.02-.23-.14-.63-.37-.1-.02-.16-.11-.14-.2.02-.09.11-.16.2-.14Z"/>
  <path class="cls-5" d="M2345.5,912.76l-.4,21.86.4-21.86Z"/>
  <path class="cls-4" d="M1072.07,933.97l1.06,6.45c.02.11-.04.21-.14.23,0,0,0,0,0,0-.42.13-.96,0-1.6-.37h-.03c-2.33-1.51-3.21-3.64-2.64-6.39.18-.92,1.07-1.51,2-1.32.69.15,1.23.7,1.36,1.4Z"/>
  <path class="cls-3" d="M537.72,941.1c2.09.44,3.6,2.24,3.67,4.36l2.58,75.97c.09,2.48-1.47,4.73-3.84,5.53-2.31.78-6.28,1.18-11.89,1.2-23.73.04-47.71-1.02-71.95-3.18-2.18-.21-3.82-2.07-3.75-4.24l2.52-76.2c.07-2.1,1.71-3.81,3.81-3.95,19.64-1.32,39.42-1.81,59.35-1.46,6.97.11,13.48.77,19.51,1.98Z"/>
  <path class="cls-3" d="M1908.36,943.51c1.18,3.88,1.8,8.28,1.83,13.21.36,41.68.56,63.41.6,65.19.04,2.59-1.95,4.76-4.53,4.96-25.7,1.86-52.33-.09-81.7-2.18-2.28-.17-4.03-2.06-4.01-4.33l.34-72.13c.02-3.16,2.33-5.84,5.44-6.3,26.44-3.9,52.84-4.16,79.2-.8,1.33.18,2.43,1.11,2.81,2.38Z"/>
  <path class="cls-3" d="M2344.9,939.64l.63,351.55-122.65.86c-.91,0-1.69.68-1.8,1.6-1.2,9.44-1.81,15.56-1.83,18.37-.04,20.82.31,45.71,1.03,74.65.69,27.94-1.17,52.38-.23,76.57.08,2.01-1.48,3.7-3.49,3.78-.01,0-.02,0-.03,0-16.26.55-39.34.78-69.26.69-1.53,0-2.47.33-2.84,1-22.62.27-45.21.3-67.77.09-2.67-1.43-5.53-1.38-8.57.17l-20.78,1.4c-2.49.17-4.42,2.24-4.41,4.73v73.85c0,3.09-2.15,5.77-5.16,6.42-4.03.9-8.83,1.33-14.39,1.29-43.42-.29-77.04-.25-100.84.11-3.19.06-6.36.25-9.51.57-1.24.14-2.2,1.14-2.26,2.38-1.85,33.72-2.24,67.64-1.15,101.76.66,21.32.03,43.61-.2,63.56-.04,2.64-1.84,4.92-4.38,5.56-21.15,5.27-44.39,3.75-67,3.04-34.04-1.12-55.05-.75-95.51-1.12-16.51-.14-34.79,1.12-50.12.89-1.8-.03-3.24-1.48-3.24-3.27l-.52-438.49c4.13-.53,8.31-.73,12.55-.57,7.55.27,11.72.39,12.52.37,51.47-1.06,100.32-.23,149.64-2.66,15.78-.76,30.38-.42,43.79,1.03,1.75.19,3.32-1.07,3.51-2.82.01-.11.02-.22.02-.33l-.14-77.66c0-2.51,1.94-4.59,4.44-4.76,1.99-.13,3.86-.23,5.62-.29,30.43-.96,47.95-1.5,52.55-1.63,21.05-.65,40.88-.31,59.49,1.03.27.02.54.02.8,0l5.1-.49c2.02-.18,3.56-1.86,3.55-3.87l.37-76.85c.01-3,2.4-5.44,5.39-5.5,48.62-.92,103.7-1.59,165.26-2.01,4.81-.04,7.15-2.5,6.99-7.39-.1-2.67.36-18.46,1.38-47.37,1.26-36.62-.86-82.9.34-112.62.12-3.2,2.17-6.01,5.19-7.11,2.9-1.07,6.67-1.59,11.29-1.55,35.53.23,71.08.57,106.63,1.03Z"/>
  <path class="cls-5" d="M717.31,1033.23l.37,80.09c0,1.22.98,2.21,2.18,2.21,0,0,.02,0,.03,0l88.35-.4,174.83.77c23.59-.27,48.22-.42,73.87-.46,4.3,0,7.92.45,10.86,1.35,1.09.34,1.83,1.34,1.83,2.46l.75,171.56-261.08.92c-1.22.02-2.21,1.01-2.21,2.24.21,38.48.21,85.08,0,139.81-.17,42.7,1.55,83.47,1.75,120.21.02,1.65,1.35,2.98,2.98,2.98l254.86,1.23c1.41,0,2.56,1.12,2.61,2.52l2.64,84.22c1.03,26.06,1.15,52.57.34,79.55-.13,4.68-2.84,7.15-8.11,7.42-26.31,1.28-52.37,2.03-78.2,2.26-1.35.02-2.44,1.11-2.44,2.46l.26,123.05c-14.16.46-37.07.79-68.74,1-7.26.04-11.71-2.25-13.35-6.88-2.87-8.08-3.98-16.36-4.99-28.31-.17-2.06-1.67-3.76-3.7-4.18-25.59-5.44-49.06-4.33-84.85-3.67-1.32-59.43-1.83-118.8-1.55-178.1.14-23.9,1.66-52.3.95-80.81-.02-.8-.67-1.43-1.46-1.43l-216.29-1.03c-1.73,0-3.12-1.4-3.12-3.12h0s-.14-83.82-.14-83.82c0-.85-.69-1.55-1.55-1.55h0l-129.38.23c-1.16,0-2.09.92-2.09,2.06,0,.03,0,.06,0,.09l2.84,83.82c.08,2.04-1.51,3.76-3.55,3.84-.06,0-.12,0-.17,0l-174.66-.83c-1.22,0-2.21.99-2.21,2.21h0s.14,80.81.14,80.81c0,1.95-1.55,3.54-3.5,3.58-42.22.94-83.42.55-123.59-1.15l1.03-350.95c41.95,1.47,83.48,1.21,124.6-.77,1.65-.08,2.95-1.44,2.95-3.09l.83-170.64c0-1.38,1.12-2.49,2.49-2.49l302.32,1.43c1.63.02,2.97-1.28,3.04-2.92l2.72-82.39c.05-1.84,1.56-3.31,3.41-3.32,13.18-.13,29.11.02,47.8.46,40.21.96,61.23,1.39,63.04,1.29,9.38-.46,14.14.94,14.27,4.18ZM675.18,1296.23c-.01-2.37-1.95-4.29-4.32-4.28l-80.01.42c-2.37.01-4.29,1.95-4.28,4.32l.41,78.97c.01,2.37,1.95,4.29,4.32,4.28l80.01-.42c2.37-.01,4.29-1.95,4.28-4.32h0s-.41-78.97-.41-78.97ZM277.27,1465.21c0,2.85,2.3,5.17,5.16,5.19l78.8.37c2.86.02,5.2-2.29,5.22-5.16h0s.37-81.5.37-81.5c.02-2.86-2.29-5.2-5.16-5.22,0,0-.02,0-.03,0l-79.32.14c-2.86,0-5.19,2.32-5.19,5.19h0s.14,80.98.14,80.98Z"/>
  <path class="cls-2" d="M808.23,1115.13l-88.35.4c-1.2.02-2.19-.96-2.21-2.18v-.03l-.37-80.09c.69,1.11,1.06.43,1.12-2.03.01-.8.63-1.46,1.43-1.52,28.67-2.1,56.58-2.47,83.7-1.12,1.04.04,1.86.88,1.89,1.92,1.05,26.88,1.84,52.2,2.38,75.97.04,1.62.53,3.05,1.46,4.27.95,1.24.6,2.71-1.06,4.41Z"/>
  <path class="cls-2" d="M1688.62,1291.65l.52,438.49c0,1.78,1.44,3.24,3.24,3.27,15.33.23,33.61-1.03,50.12-.89,40.46.37,61.47,0,95.51,1.12,22.61.72,45.85,2.24,67-3.04,2.55-.64,4.35-2.92,4.38-5.56.23-19.94.86-42.24.2-63.56-1.09-34.12-.71-68.04,1.15-101.76.06-1.23,1.02-2.24,2.26-2.38,3.15-.32,6.32-.52,9.51-.57,23.8-.36,57.42-.4,100.84-.11,5.56.04,10.35-.39,14.39-1.29,3.01-.65,5.16-3.32,5.16-6.42v-73.85c0-2.49,1.93-4.56,4.41-4.73l20.78-1.4c3.04.78,5.89.73,8.57-.17,22.56.21,45.15.18,67.77-.09.36-.67,1.31-1,2.84-1,29.92.1,53-.13,69.26-.69,2.01-.06,3.59-1.74,3.53-3.75,0-.01,0-.02,0-.03-.95-24.19.92-48.63.23-76.57-.73-28.94-1.07-53.82-1.03-74.65.02-2.81.63-8.93,1.83-18.37.12-.92.89-1.61,1.8-1.6l122.65-.86c-.38,1.34-.43,2.83-.14,4.47l-.2,7.88v6.19c-.48,2.24-.36,4,.34,5.3l1.18,328.68-125.23.97c-1.08,0-1.95.89-1.94,1.98,0,.09,0,.19.02.28l1.89,11.69-.29,69.49c-.01,1.15-.93,2.09-2.06,2.12l-173.63,3.52c-1.71.03-3.08,1.42-3.1,3.12l-.37,81.41c-.02,1.51-1.24,2.72-2.75,2.72l-123.05-.6c-2.43,0-4.4,1.96-4.41,4.38l-.37,78.03c0,1.82-1.4,3.35-3.24,3.5-35.74,2.88-70.89,3.69-105.45,2.41-23.8-.9-48.28-1.8-73.42-2.69-12.67-.46-24.99,1.58-35.33,5.19-4.32,1.53-6.36,4.78-6.13,9.74.89,20.75-.37,36.65,0,55.39.38,20.08.78,40.36,1.2,60.84l-81.3,1.35c-1.66.04-3.06-1.23-3.21-2.89l-3.18-36.62c-.23-2.63-2.29-4.72-4.9-4.99-10.03-1.03-16.27-1.57-18.71-1.6-22.24-.4-44.86-.15-67.89.75l.11-120.47c0-.85.45-1.64,1.17-2.06.88-.5.87-.77-.03-.83-.23,0-.37-1.06-.43-3.18-.4-15.59-1.58-40.78-.75-62.35.74-18.99.98-42.08.72-69.26-.02-1.71-1.4-3.08-3.1-3.07h0l-167.01.26c-1.8,0-3.28-1.42-3.32-3.21l-2.92-87.46c1.17-25.37,1.2-50.84.11-76.4-.97-22.43-1.44-37.89-1.4-46.39.08-18.11-.16-33.6-.72-46.48-.06-1.69-1.45-3.02-3.12-3.01l-78.43.11c-1.03,0-1.87-.79-1.92-1.81-1.3-27.11-1.36-53.46-.17-79.06.19-4.36,2.13-6.99,5.82-7.91,3.99-1.01,7.63-1.62,10.92-1.83,22.49-1.51,44.07-1.88,64.76-1.12,2.03.08,3.64,1.75,3.64,3.78l-.4,81.58c-.02,2.87,2.29,5.21,5.16,5.24,42.37.44,86.04.41,131.01-.09,12.34-.13,24.54-1.3,36.59-3.5,1.14-.21,2.08-1.01,2.46-2.09,1.13-3.29,1.67-6.94,1.63-10.98-.23-24.61-.03-48.48.6-71.61.04-1.42,1.23-2.55,2.67-2.51.07,0,.15,0,.22.02,4.13.5,8.74.58,13.84.26,23.29-1.41,45.93-2.36,67.91-2.84,4.49-.1,6.68-2.19,6.56-6.28-.67-23.23-.71-48.19-.11-74.88.02-1.22,1-2.2,2.24-2.24l79.66-1.6c2.09-.05,3.82,1.61,3.87,3.7,0,.03,0,.06,0,.09v1.4c.03-1.4,0-2.18.89-3.5ZM1688.59,1739.95c0-4.27-3.48-7.73-7.75-7.72l-70.26.12c-4.27,0-7.73,3.48-7.72,7.75h0s.13,73.53.13,73.53c0,4.27,3.48,7.73,7.75,7.72l70.26-.12c4.27,0,7.73-3.48,7.72-7.75h0s-.13-73.53-.13-73.53Z"/>
  <path class="cls-2" d="M675.59,1375.2c.01,2.37-1.9,4.31-4.28,4.32h0l-80.01.42c-2.37.01-4.31-1.9-4.32-4.28l-.41-78.97c-.01-2.37,1.9-4.31,4.28-4.32l80.01-.42c2.37-.01,4.31,1.9,4.32,4.28l.41,78.97Z"/>
  <path class="cls-1" d="M2345.18,1303.54l.2-7.88-.2,7.88Z"/>
  <path class="cls-1" d="M2345.53,1315.03c-.71-1.3-.82-3.07-.34-5.3l.34,5.3Z"/>
  <path class="cls-3" d="M984.84,1460.35c.03,4.3-3.44,7.82-7.74,7.85l-73.47.51c-4.3.03-7.82-3.43-7.85-7.74h0s-.52-75.19-.52-75.19c-.03-4.3,3.44-7.82,7.74-7.85l73.47-.51c4.3-.03,7.82,3.44,7.85,7.74l.53,75.19Z"/>
  <path class="cls-2" d="M277.27,1465.21l-.14-80.98c0-2.86,2.32-5.19,5.19-5.19h0l79.32-.14c2.86,0,5.19,2.32,5.19,5.19v.03l-.37,81.5c-.02,2.86-2.35,5.17-5.22,5.16h0l-78.8-.37c-2.85-.02-5.16-2.33-5.16-5.19Z"/>
  <path class="cls-4" d="M808.15,1817.65c-112.58-.4-225.22-.44-337.94-.11-3.88.02-7.58.39-11.12,1.12-2.89.58-5.17,2.81-5.82,5.7-2.64,12.04-4.44,22.24-11.75,30.66-2.04,2.35-4.99,3.72-8.11,3.75l-147.46,1.92c-1.48.02-2.9.59-3.98,1.6-6.96,6.59-4.5,12.9-6.39,19.43-4.1,14.1-12.58,20.26-27.88,21.32-19.66,1.34-30.96,1.94-33.9,1.81-9.63-.44-17.19-.45-22.7-.03-1.26.09-2.39.8-3.04,1.89-1.38,2.27-1.94,5.08-1.69,8.42-1.05.94-1.21,2.44-.49,4.5,1.03,7.88,1.72,24.47-7.51,27.94-8.65,3.27-16.66,2.97-24.01-.89-2.82-1.48-4.6-4.4-4.61-7.59l-.95-296.64c40.18,1.7,81.37,2.08,123.59,1.15,1.94-.05,3.5-1.64,3.5-3.58l-.14-80.81c0-1.22.99-2.21,2.21-2.21h0l174.66.83c2.04.02,3.71-1.62,3.73-3.67,0-.06,0-.12,0-.17l-2.84-83.82c-.05-1.14.85-2.1,2-2.15.03,0,.06,0,.09,0l129.38-.23c.85,0,1.55.69,1.55,1.55h0s.14,83.82.14,83.82c0,1.73,1.4,3.12,3.12,3.12h0l216.29,1.03c.8,0,1.45.64,1.46,1.43.72,28.51-.8,56.91-.95,80.81-.29,59.3.23,118.66,1.55,178.1ZM452.02,1724.69l-.52-74.62c-.03-4.27-3.52-7.71-7.79-7.68h0l-63.04.46c-8.77.06-15.84,6.04-15.79,13.37h0s.46,63.57.46,63.57c.05,7.32,7.2,13.21,15.96,13.15l63.04-.46c4.27-.03,7.71-3.52,7.68-7.79h0Z"/>
  <path class="cls-1" d="M2076.65,1468.8c-2.67.9-5.53.96-8.57.17,3.04-1.55,5.89-1.6,8.57-.17Z"/>
  <path class="cls-5" d="M2346.7,1643.71l.89,255.64c.02,1.25-.86,2.33-2.09,2.58-19.14,3.76-29.66,5.93-31.55,6.5-4.87,1.49-7.45,4.9-7.31,10.29.31,10.89-.75,21.12-7.57,29.52-1.79,2.23-4.51,3.51-7.39,3.5-31-.11-50.23-.15-57.68-.11-7.14.03-10.6,2.81-12.75,9.54-2.25,7.07-3.95,13.97-5.07,20.72-1.43,8.37-4.87,10.57-13.93,10.77-22.58.57-45.91.11-68.06,2.06-3.01.26-5.37,2.7-5.56,5.73-1,16.39-.83,23.38-5.36,34.87-.99,2.45-3.38,4.03-6.02,3.98l-75.57-1.4-.11-214.37c0-.98.73-1.79,1.69-1.86,29.69-2.29,57.53-2.5,83.53-.63,1.99.15,3.53,1.8,3.52,3.78v80.21c0,1.88,1.53,3.41,3.41,3.41h83.07c2.31,0,4.2-1.87,4.21-4.18l.43-245.61-1.89-11.69c-.16-1.08.58-2.08,1.64-2.24.09-.01.19-.02.28-.02l125.23-.97Z"/>
  <path class="cls-3" d="M1334.32,1641.56l2.92,87.46c.05,1.79,1.52,3.21,3.32,3.21l167.01-.26c1.69-.02,3.08,1.36,3.1,3.07h0c.27,27.18.03,50.27-.72,69.26-.83,21.58.34,46.77.75,62.35.06,2.12.2,3.18.43,3.18.9.06.91.33.03.83-.73.43-1.17,1.21-1.17,2.06l-.11,120.47c-29.31,1.81-52.3,2.16-68.97,1.03-3-.21-6.93-2.45-11.78-6.73-.77-.68-1.23-1.64-1.29-2.66-.52-9.46-1.25-17.32-2.21-23.58-1.66-11-7.91-13.7-19-13.67-44.45.11-72.66.4-84.62.86-22.1.86-43.19,1.05-63.27.57-3.04-.09-5.58-2.31-6.05-5.3-1.66-10.56-2.43-21.22-2.29-31.98.06-4.85-2.57-7.32-7.88-7.39-41.76-.52-85.59-.61-131.47-.29-14,.1-21.86-.15-23.58-.74-14.64-5.04-16.42-22.27-16.36-35.68.02-2.4-1.87-4.38-4.27-4.47l-83.04-3.47-.26-123.05c0-1.35,1.09-2.45,2.44-2.46,25.83-.23,51.9-.98,78.2-2.26,5.27-.27,7.98-2.74,8.11-7.42.8-26.97.69-53.49-.34-79.55,78.46-.48,156.93-.85,235.41-1.12,8.6-.03,17.8-1.81,26.99-2.26Z"/>
  <path class="cls-3" d="M452.02,1724.69c.03,4.27-3.41,7.76-7.68,7.79h0l-63.04.46c-8.76.06-15.91-5.83-15.96-13.15l-.46-63.56c-.05-7.33,7.01-13.32,15.78-13.38h.01l63.04-.46c4.27-.03,7.76,3.41,7.79,7.68h0s.52,74.62.52,74.62Z"/>
  <path class="cls-4" d="M2041.69,2037.9l-243.14-.26c-1.43-.99-3.22-1.08-5.36-.26l-3.24-.03c-2.75-.59-5.48-.6-8.2-.03-.13.02-.28.04-.43.06-2.46-.46-4.93-.47-7.39-.03l-84.88-.14c-.42-20.48-.82-40.76-1.2-60.84-.37-18.74.89-34.64,0-55.39-.23-4.97,1.82-8.21,6.13-9.74,10.34-3.61,22.67-5.65,35.33-5.19,25.14.9,49.61,1.8,73.42,2.69,34.56,1.28,69.71.48,105.45-2.41,1.83-.15,3.24-1.67,3.24-3.5l.37-78.03c.02-2.43,1.99-4.38,4.41-4.38l123.05.6c1.51,0,2.74-1.21,2.75-2.72l.37-81.41c.02-1.71,1.39-3.09,3.1-3.12l173.63-3.52c1.14-.03,2.05-.97,2.06-2.12l.29-69.49-.43,245.61c-.02,2.32-1.9,4.18-4.21,4.18h-83.07c-1.88,0-3.41-1.53-3.41-3.41v-80.21c0-1.98-1.53-3.63-3.52-3.78-26-1.87-53.84-1.66-83.53.63-.96.08-1.69.89-1.69,1.86l.11,214.37Z"/>
  <path class="cls-3" d="M1688.72,1813.48c0,4.27-3.45,7.74-7.72,7.75h0l-70.26.12c-4.27,0-7.74-3.45-7.75-7.72l-.13-73.53c0-4.27,3.45-7.74,7.72-7.75h0l70.26-.12c4.27,0,7.74,3.45,7.75,7.72l.13,73.53Z"/>
  <path class="cls-1" d="M186.38,1915.14l-.49,4.5c-.73-2.06-.56-3.56.49-4.5Z"/>
</svg>