<?xml version="1.0" encoding="UTF-8"?>
<svg id="Layer_1" data-name="Layer 1" xmlns="http://www.w3.org/2000/svg" viewBox="0 0 2311.75 1190.77">
  <defs>
    <style>
      .cls-1 {
        fill: #fff;
      }

      .cls-2 {
        fill: #19344f;
      }
    </style>
  </defs>
  <path class="cls-2" d="M1084.89,292.14c.02.58.49,1.03,1.05,1.03h140.74c1.31,0,2.38-1.05,2.42-2.37.56-22.84.92-50.44,1.07-82.79.02-5,.91-9.46,2.79-13.8.65-1.54,2.14-2.55,3.82-2.6,17.93-.62,43.47-1.16,76.64-1.61,5.7-.08,112.74-.39,321.13-.91,11.51-.03,46.64.21,105.38.7,3.72.04,5.82,2.37,6.3,6.98.91,8.88,1.38,14.04,1.4,15.47.51,24.73.73,51.03.66,78.91,0,1.07.88,1.94,1.96,1.94h0c30.63-.04,61.41.75,92.33,2.37,6,.32,9.13,3.36,9.38,9.13,1.51,34.21,2.43,61.6,2.75,82.15.06,2.79.17,4.69.35,5.7.24,1.79,1.75,3.12,3.55,3.14l41.14.33c1.19.01,2.16-.94,2.17-2.13h0c.19-52.94.97-117.58,2.33-193.94.17-8.96,7.06-8.32,15.03-8.92,10.9-.81,23.21-1.23,36.9-1.26,83.03-.21,146.71-.1,191.02.33,8.69.08,16.43.52,23.23,1.3,1.27.16,2.25,1.19,2.33,2.46,1.31,19.41,1.97,39.67,1.98,60.78.28,216.81.31,435.03.1,654.65-.03,30.73-.69,59.79-1.98,87.19-.07,1.43-1.2,2.58-2.62,2.66-11.21.63-21.97,1-32.3,1.12-69.87.81-131.32.87-184.35.17-15.63-.21-30.24-.67-43.84-1.38-1.54-.09-2.87-1.09-3.39-2.54-1.25-3.58-1.97-7.7-2.15-12.35-1.49-38.95-2.47-77.59-2.95-115.92-.04-3.74-2.11-5.69-6.22-5.82-25.98-.85-52.06-1.4-78.25-1.63-4.9-.04-9.43-.73-13.59-2.07-1.46-.47-2.64-1.55-3.24-2.95-1.49-3.41-2.26-7.6-2.31-12.56-.28-31.93-.52-53.53-.74-64.8-.1-4.85-.46-9.44-1.09-13.77-.11-.77-.45-1.49-.97-2.09-1.53-1.73-4.59-2.64-9.19-2.71-1.65-.03-13.27-.04-34.86-.04-1,0-1.81.77-1.86,1.76-.36,7.53-.54,14.27-.56,20.22-.3,69.97-1.27,138.8-2.89,206.51-.25,10.47-7.1,12.49-16.81,12.89-7.68.3-14.63.46-20.84.47-142.01.26-285.99.18-431.94-.25-13.22-.04-30.46-.12-41.55-2.44-.71-.14-1.28-.67-1.47-1.36-1.21-4.53-1.82-7.1-1.84-7.7-.74-22.48-1.23-55.81-1.45-99.99-.02-4.48-.78-9.91-1.67-15.39-.25-1.46-1.45-2.58-2.93-2.73-6.24-.59-11.87-.89-16.91-.91-44.44-.12-79.03-.13-103.77-.02-3.69.01-8.95.33-15.78.95-2.08.2-3.7,1.89-3.82,3.99-1.71,32.01-2.75,65.02-3.12,99.04-.08,7.74-1.16,15.7-2.5,22.43-.2.93-1,1.61-1.94,1.65-16.75.58-35.11,2.19-54.02,2.27-38.71.19-87.2.22-145.47.08-19.3-.04-38.8-.85-58.51-2.42-.95-.08-1.7-.82-1.8-1.76-1.02-9.54-1.6-19.54-1.76-29.99-.64-45.56.27-124.69-.76-177.58-.78-39.43-1.35-77.39-1.69-113.89-.01-1.29-1.06-2.32-2.33-2.31,0,0-.01,0-.02,0l-67.1,1.36c-1.28.03-2.3,1.07-2.31,2.35-.23,29.79-1.08,59.54-2.54,89.23-.11,2.2-.48,4.3-1.09,6.3-.55,1.7-2.01,2.94-3.78,3.2-5.69.83-13.2,1.23-22.53,1.22-110.1-.11-194.53.21-253.29.97-15.28.21-28.56.99-42.17,1.47-2.15.08-3.89,1.76-4.05,3.9-.41,5.37-.62,8.29-.62,8.76-.41,45.39-2.15,87.4-2.35,128.74-.21,40.66-.5,64.52-.89,71.6-.15,2.97-1.45,5.11-3.9,6.4-.53.29-1.12.44-1.73.45-71.21,1.58-148.56,2.25-232.06,2-12.32-.04-21.94-.71-28.85-2-.65-.13-1.15-.64-1.26-1.28-1.21-6.76-1.83-11.21-1.86-13.34-.72-67.02-1.14-162.19-1.26-285.5-.23-231.8-.37-392.71-.41-482.72-.01-7.23.32-13.83,1.01-19.8.27-2.43,2.06-4.42,4.44-4.96,5.56-1.25,11.54-1.89,17.95-1.92,267.24-.69,454.45-.59,561.61.29,6.94.06,11.85.3,14.75.74,1.04.17,1.82,1.05,1.86,2.11l3.35,98.57c.03.88.75,1.57,1.63,1.57h69.37c1,0,1.82-.8,1.84-1.8.55-27.82.87-56.54.95-86.14.01-3.4.49-7.32,1.42-11.77.28-1.34,1.33-2.37,2.66-2.62,2.13-.41,3.95-.63,5.45-.66,58.44-1.09,139.49-1.11,243.15-.06,6.86.06,13.65.27,13.75,9.5.32,27.91,1.3,58.83,2.95,92.77ZM896.65,271.8l-.95,200.13c0,.71.57,1.28,1.28,1.28h0l103.05.5c.98.01,1.78.8,1.78,1.78l.35,210.79c0,1.54-1.25,2.79-2.79,2.79l-101.4.17c-.87,0-1.57.7-1.57,1.57h0s.39,229.91.39,229.91c0,.6.49,1.09,1.09,1.09h0l100.84-.17c1.35,0,2.45-1.09,2.46-2.44l.6-127.42c.01-.9.75-1.63,1.65-1.63l102.2-.17c.72,0,1.3-.59,1.3-1.32l-.17-98.42c0-1.07.87-1.94,1.94-1.94h0l95.51-.14c.95-.01,1.72.75,1.73,1.69v.02l.17,97.83c0,1.16.94,2.11,2.11,2.11l100.72.5c1.44,0,2.6,1.16,2.6,2.58h0l.21,127.07c0,.89.72,1.61,1.61,1.61h0l101.73-.17c1.08,0,1.96-.89,1.96-1.98l-.37-228.69c0-.86-.69-1.56-1.55-1.57l-100.28-.48c-1.83-.01-3.3-1.49-3.3-3.3l-.35-209.49c0-1.12.91-2.02,2.02-2.02l102.18-.17c.91,0,1.65-.75,1.65-1.67l-.33-199.7c0-.98-.79-1.78-1.76-1.78,0,0-.01,0-.02,0-34.67.18-64.98.08-90.93-.31-3.43-.04-7.41-.64-11.13-1.63-.46-.13-.94.15-1.06.61-.02.08-.03.16-.03.24l.17,100.88c0,1.06-.86,1.92-1.92,1.92h0l-101.75.17c-.82,0-1.5.67-1.51,1.51l-.45,98.9c-.01,1.05-.86,1.9-1.9,1.9l-95.26.14c-1.2.01-2.18-.96-2.19-2.17l-.17-99.6c0-.63-.51-1.14-1.14-1.14l-102.95.17c-.91,0-1.65-.74-1.65-1.65h0s-.17-99.17-.17-99.17c0-.43-.36-.78-.81-.78h0l-102.33.17c-.63,0-1.14.5-1.14,1.12h0ZM220.36,271.9l1.09,649.57c0,.39.31.7.68.7h0l101.17-.17c.97,0,1.77-.76,1.86-1.73.72-7.99,1.1-17.7,1.16-29.14.15-31.05.19-94.74.12-191.09,0-.74.6-1.34,1.34-1.34l325.75-.54c.85-.01,1.53-.7,1.53-1.55l.47-96.98c.01-2.17,1.76-3.92,3.92-3.92l98.51-.17c1.38,0,2.5-1.12,2.5-2.5l-.37-219.46c0-.7-.56-1.26-1.26-1.26h-101.81c-.88,0-1.59.71-1.59,1.59h0s.37,219.54.37,219.54c0,1.65-1.34,2.99-2.99,2.99l-324.23.54c-1.06.01-1.93-.85-1.94-1.92l-.35-222.02c-.01-.87.68-1.58,1.55-1.59,0,0,.01,0,.02,0h325.67c.73,0,1.32-.58,1.32-1.3h0l-.17-98.28c0-.97-.79-1.76-1.76-1.76,0,0-.01,0-.02,0l-431.47.7c-.6,0-1.09.48-1.09,1.07ZM1988.96,270.73c-.78,0-1.4.63-1.4,1.4h0s-1.45,301.74-1.45,301.74c0,1.57-1.25,2.86-2.81,2.91-33.65,1.27-67.78,1.01-102.39-.76-1.23-.06-2.19-1.07-2.19-2.31v-97.78c0-.64-.53-1.16-1.18-1.16l-101.77-.5c-1.5-.01-2.71-1.22-2.71-2.71l-.17-97.68c0-.72-.58-1.31-1.3-1.32l-102.68-.47c-.95-.01-1.7-.78-1.69-1.71h0s.48-99.31.48-99.31c0-.39-.32-.7-.72-.7h0l-106.23.17c-.65,0-1.18.53-1.18,1.18h0v648.6c0,.66.54,1.2,1.2,1.2h104.81c.69,0,1.25-.55,1.26-1.24l1.63-342.77c0-.76.62-1.38,1.38-1.38,0,0,.01,0,.02,0l102.66.48c.63,0,1.14.51,1.14,1.14h0s.17,98.44.17,98.44c0,.9.73,1.64,1.63,1.65l102.95.48c.63.01,1.15.52,1.16,1.16l.17,99.02c0,.79.63,1.43,1.43,1.45l104.17.5c.74,0,1.34.6,1.34,1.34h0s.23,138.26.23,138.26c0,.86.69,1.55,1.55,1.55l103.19-.17c.87,0,1.57-.7,1.57-1.57h0s-1.07-646.57-1.07-646.57c0-1.12-.9-2.03-2.02-2.04l-101.15-.48ZM492.53,518.81c35.44,0,57.99-.22,67.65-.66,3.83-.18,6.75-.47,8.76-.89,2.79-.59,4.79-3.05,4.79-5.91l-.1-55.32c0-1.85-1.41-3.39-3.26-3.55-20.67-1.76-44.65-1.34-78.33-1.34-35.44,0-57.99.22-67.65.66-3.83.18-6.75.48-8.76.89-2.79.59-4.79,3.05-4.79,5.91l.1,55.32c0,1.85,1.41,3.39,3.26,3.55,20.67,1.76,44.65,1.34,78.33,1.34ZM844.98,604.39c-.09,3.02,2.28,5.54,5.3,5.64.05,0,.1,0,.15,0l63.94.31c3.02.01,5.48-2.43,5.49-5.45,0-.05,0-.1,0-.15l-.91-44.69c-.07-2.96-2.47-5.33-5.43-5.35l-61.56-.31c-2.97-.02-5.41,2.32-5.51,5.29l-1.47,44.71ZM1477.07,559.81c.02-2.6-2.07-4.72-4.68-4.74h0l-74.18-.52c-2.6-.02-4.72,2.08-4.74,4.68l-.31,44.77c-.02,2.6,2.07,4.72,4.68,4.74h0l74.18.52c2.6.02,4.72-2.08,4.74-4.68l.31-44.77Z"/>
  <path class="cls-1" d="M897.79,270.68l102.33-.17c.44,0,.81.35.81.78h0l.17,99.17c0,.91.74,1.65,1.65,1.65h0l102.95-.17c.63,0,1.14.51,1.14,1.14l.17,99.6c.01,1.21.99,2.18,2.19,2.17l95.26-.14c1.04,0,1.89-.85,1.9-1.9l.45-98.9c.01-.84.68-1.51,1.51-1.51l101.75-.17c1.06,0,1.92-.86,1.92-1.92h0s-.17-100.88-.17-100.88c0-.48.38-.87.86-.88.08,0,.16,0,.24.03,3.72.99,7.7,1.59,11.13,1.63,25.95.39,56.26.49,90.93.31.97-.01,1.76.77,1.78,1.76,0,0,0,.01,0,.02l.33,199.7c0,.92-.74,1.67-1.65,1.67l-102.18.17c-1.12,0-2.02.91-2.02,2.02l.35,209.49c0,1.82,1.48,3.29,3.3,3.3l100.28.48c.86.01,1.55.71,1.55,1.57l.37,228.69c0,1.09-.88,1.98-1.96,1.98l-101.73.17c-.89,0-1.61-.72-1.61-1.61h0s-.21-127.07-.21-127.07c0-1.43-1.16-2.58-2.6-2.58h0l-100.72-.5c-1.16,0-2.11-.94-2.11-2.11l-.17-97.83c0-.95-.77-1.71-1.71-1.71,0,0-.01,0-.02,0l-95.51.14c-1.07,0-1.94.87-1.94,1.94h0s.17,98.42.17,98.42c0,.73-.58,1.32-1.3,1.32l-102.2.17c-.9,0-1.64.73-1.65,1.63l-.6,127.42c-.01,1.35-1.11,2.44-2.46,2.44l-100.84.17c-.6,0-1.09-.49-1.09-1.09h0s-.39-229.91-.39-229.91c0-.87.7-1.57,1.57-1.57h0l101.4-.17c1.54,0,2.79-1.25,2.79-2.79l-.35-210.79c0-.97-.79-1.76-1.78-1.78l-103.05-.5c-.71,0-1.28-.57-1.28-1.28h0s.95-200.13.95-200.13c0-.62.51-1.12,1.14-1.12h0Z"/>
  <path class="cls-1" d="M221.46,270.83l431.47-.7c.97-.01,1.76.77,1.78,1.73v.02l.17,98.28c0,.72-.59,1.3-1.32,1.3h-325.67c-.87,0-1.57.7-1.57,1.57,0,0,0,.01,0,.02l.35,222.02c.01,1.07.88,1.93,1.94,1.92l324.23-.54c1.65,0,2.99-1.34,2.99-2.99l-.37-219.54c0-.88.71-1.59,1.59-1.59h101.81c.7,0,1.26.56,1.26,1.26l.37,219.46c0,1.38-1.12,2.5-2.5,2.5l-98.51.17c-2.16,0-3.91,1.75-3.92,3.92l-.47,96.98c0,.85-.68,1.54-1.53,1.55l-325.75.54c-.74,0-1.34.6-1.34,1.34.07,96.35.03,160.04-.12,191.09-.06,11.44-.44,21.15-1.16,29.14-.09.98-.89,1.73-1.86,1.73l-101.17.17c-.38,0-.68-.31-.68-.7h0l-1.09-649.57c0-.59.49-1.07,1.09-1.07Z"/>
  <path class="cls-1" d="M1988.96,270.73l101.15.48c1.12.01,2.02.92,2.02,2.04l1.07,646.57c0,.87-.7,1.57-1.57,1.57h0l-103.19.17c-.86,0-1.55-.69-1.55-1.55l-.23-138.26c0-.74-.6-1.34-1.34-1.34h0l-104.17-.5c-.79-.01-1.43-.66-1.43-1.45l-.17-99.02c-.01-.63-.52-1.15-1.16-1.16l-102.95-.48c-.9-.01-1.63-.75-1.63-1.65l-.17-98.44c0-.63-.51-1.14-1.14-1.14h0l-102.66-.48c-.76-.01-1.39.6-1.4,1.36,0,0,0,.01,0,.02l-1.63,342.77c-.01.69-.57,1.24-1.26,1.24h-104.81c-.66,0-1.2-.54-1.2-1.2h0V271.7c0-.65.53-1.18,1.18-1.18h0l106.23-.17c.4,0,.72.31.72.7h0s-.48,99.31-.48,99.31c-.01.94.75,1.7,1.69,1.71h0l102.68.47c.72.01,1.3.6,1.3,1.32l.17,97.68c0,1.49,1.21,2.69,2.71,2.71l101.77.5c.65,0,1.18.52,1.18,1.16v97.78c0,1.24.96,2.26,2.19,2.31,34.61,1.78,68.74,2.03,102.39.76,1.56-.06,2.8-1.34,2.81-2.91l1.45-301.74c0-.78.63-1.4,1.4-1.4h0Z"/>
</svg>