<?xml version="1.0" encoding="UTF-8"?>
<svg id="Layer_1" data-name="Layer 1" xmlns="http://www.w3.org/2000/svg" viewBox="0 0 6428.09 1001.49">
  <defs>
    <style>
      .cls-1 {
        fill: #fff;
      }

      .cls-2 {
        fill: #19344f;
      }

      .cls-3 {
        fill: #3ba462;
      }
    </style>
  </defs>
  <path class="cls-2" d="M3676.8,194.91c.52,3.12,2.01,4.01,4.46,2.64,1.33.18,2.82.07,4.46-.33,1.36,1.07,2.37,1.04,3.02-.07,2.92,1.85,5.42,1.94,7.51.27,3.58-2.89,2.07-9.51,3.09-13.9,2.46-10.51,2.4-21.14-.18-31.87-.5-2.12-.15-6.37,1.07-12.77.13-.77.22-1.54.27-2.31.62-12.3.2-20.86,1.98-30.78.73-4.04.47-8.61-.76-13.7-.1-.34.11-.7.46-.8.06-.02.12-.02.18-.02,36.68.03,61.04.1,73.07.2,29.2.27,53.57.4,73.12.4,186.53-.01,729.64-.03,1629.34-.04,48.09,0,99.35-.87,141.9-.82,1.04,0,1.92.78,2.02,1.82.55,5.52.86,11.08.93,16.68.31,22,.3,50.45-.04,85.33-.02,1.96,1.56,3.57,3.53,3.6.01,0,.03,0,.05,0l12.7-.02c2.24,0,4.06-1.83,4.06-4.09v-100.59c0-1.2.97-2.18,2.18-2.18h304.8c1.53,0,2.78,1.25,2.78,2.8h0v101.13c0,1.45,1.17,2.62,2.62,2.62h81.54c1.44,0,2.6-1.16,2.6-2.6v-.02c-.07-9.06.13-25.52.6-49.37.27-13.56,1.31-25.16,3.13-34.8,3.49-18.41,47.84-18.72,62.52-18.9,57.16-.65,111.76-.75,163.8-.29,22,.19,43.79,1.38,65.34,3.55,1.26.12,2.25,1.13,2.35,2.4,1.91,22.03,1.78,47.75,2.58,94.53.36,21.57.52,47.23.49,76.96-.21,275.67-.05,467.73.49,576.19.1,18.36-.09,36.63-.58,54.79-.04,1.18-1,2.11-2.18,2.11h-296.96c-.98,0-1.78-.8-1.78-1.78v-86.91c0-1.37-1.11-2.49-2.49-2.49h-81.31c-1.86,0-3.38,1.51-3.38,3.38h0v93.91c0,.72-.59,1.31-1.31,1.31h-304.71c-1.64,0-2.98-1.32-2.98-2.95h0l-.16-93.31c0-1.88-1.52-3.4-3.39-3.4-.07,0-.14,0-.21,0-4.63.25-8.79,1.54-12.46,3.86-1.71,1.08-2.77,2.94-2.82,4.95-.55,23.01-1.34,46.1-2.38,69.28-.31,6.9-1.53,13.17-3.67,18.81-.67,1.77-2.36,2.93-4.24,2.93h-947.05c-1.67,0-3.02-1.35-3.02-3.02v-295.96c0-1.02.83-1.84,1.84-1.84h99.46c1.03,0,1.87-.84,1.87-1.87h0v-204.63c0-1.31-1.07-2.38-2.4-2.38h-145.55c-1.63,0-2.95,1.33-2.95,2.98h0v505.32c0,.81-.66,1.47-1.47,1.47h-313.68c-1.45,0-2.62-1.16-2.62-2.6v-504.83c0-1.21-.98-2.2-2.2-2.2h-85.69c-1.46,0-2.64,1.18-2.64,2.64v.02c.77,163.31.22,327.8-1.64,493.48-.07,7.54-3.44,11.41-10.11,11.62-17.06.53-34.65.83-52.77.89-302.5,1.13-558,1.35-766.52.67-.98,0-1.78-.8-1.78-1.78h0v-102.41c0-.91-.75-1.64-1.67-1.64h-96.02c-1.28,0-2.31,1.03-2.31,2.31v101.9c0,1.05-.85,1.91-1.91,1.91h-296.71c-1.18,0-2.13-.95-2.13-2.13h0c.04-31.03-.73-72.56-.73-98.75.1-220.11.06-354.89-.13-404.35-.13-36.75.29-78.33,1.27-124.74.7-32.03,1.01-73.62.93-124.78-.03-19.15,1.45-36.71,4.44-52.71.65-3.44,3.25-6.17,6.64-7,5.02-1.24,11.02-2.09,18.01-2.53,14.16-.89,36.73-1.35,67.72-1.38,53.22-.07,116.7-.39,190.46-.96.73,0,6.89.1,18.5.31,1.05.01,1.89.86,1.89,1.91v102.7c0,1.24,1,2.24,2.24,2.24h86.93c1.24,0,2.24-1.01,2.24-2.27h0v-103.72c0-.59.47-1.07,1.04-1.07,0,0,.01,0,.02,0,103.43,1.2,203.2,1.08,299.31-.36.78-.02,1.43.61,1.45,1.39,0,.18-.03.37-.09.54-2.31,5.91-.09,12.19-.11,18.17-.07,16.39.07,35.85.42,58.37.01.86-.06,1.72-.22,2.58-1.07,5.26-3.26,19.03.33,23.14ZM3179.86,504.4c0-1.05.86-1.91,1.91-1.91l88.31-.16c1.05,0,1.91.86,1.91,1.91v103.06c0,1.05.86,1.91,1.91,1.91l98.79-.18c1.05,0,1.91.86,1.91,1.91v99.73c0,1.05.86,1.91,1.91,1.91h0l95.22-.16c1.05,0,1.91.86,1.91,1.91h0s.18,98.42.18,98.42c0,1.05.86,1.91,1.91,1.91l103.15-.18c1.05,0,1.91-.86,1.91-1.91h0V193.49c0-1.05-.86-1.91-1.91-1.91h0l-95.64.16c-1.05,0-1.91.86-1.91,1.91v308.6c0,1.05-.86,1.91-1.91,1.91h-103.37c-1.05,0-1.91-.86-1.91-1.91h0s-.18-99.62-.18-99.62c0-1.05-.86-1.91-1.91-1.91l-99.04.16c-1.05,0-1.91-.86-1.91-1.91h0v-98.99c0-1.05-.86-1.91-1.91-1.91h-87.42c-1.05,0-1.91-.86-1.91-1.91l-.18-102.48c0-1.05-.86-1.91-1.91-1.91h0l-102.41.18c-1.05,0-1.91.86-1.91,1.91v618.84c0,1.05.86,1.91,1.91,1.91l102.59-.18c1.05,0,1.91-.86,1.91-1.91v-308.11ZM4004.72,193.75c0-1.09-.89-1.98-1.98-1.97l-205.85.36c-1.09,0-1.98.89-1.97,1.98h0s.18,101.15.18,101.15c0,1.09.89,1.98,1.98,1.97l205.85-.36c1.09,0,1.98-.89,1.97-1.98h0s-.18-101.15-.18-101.15ZM4508.55,812.1V299.64c0-1.36,1.09-2.47,2.44-2.47l184.35-.31c2.02,0,3.67-1.64,3.67-3.66h0s-.16-99.42-.16-99.42c0-1.25-1.01-2.27-2.27-2.27l-486.62.82c-1.01,0-1.82.81-1.82,1.8h0v100.84c0,1.34,1.09,2.42,2.44,2.42l194.39-.33c.6,0,1.09.49,1.09,1.09,0,0,0,.01,0,.02-.64,27.65-.96,53.39-.98,77.25-.11,203.01-.93,296.74,1.11,437.97.01.7.58,1.27,1.27,1.27l98.7-.18c1.31,0,2.38-1.06,2.38-2.38h0ZM6051.89,707.36c-1.17,5.23,3.36,6.87,13.59,4.93l75.83-.29c1.17,0,2.11.94,2.11,2.11v.02c-.52,26.05-.07,52.14,1.33,78.29.34,6.35.83,11.21,1.47,14.57,1.51,8.13,11.95,6.95,19.01,7.11,13.19.25,38.61.52,76.25.8,1.83.01,3.32-1.47,3.33-3.31V193.4c0-.94-.77-1.71-1.71-1.71h-98.11c-1.19,0-2.15.95-2.15,2.13v308.55c0,.99-.8,1.8-1.78,1.8h-88.78c-.7,0-1.27-.57-1.27-1.27v-100.37c0-1.02-.84-1.84-1.87-1.84h0l-103.95.16c-.85.01-1.54-.66-1.55-1.51v-99.39c0-.85-.68-1.53-1.51-1.53h-95.77c-.74,0-1.33-.59-1.33-1.31v-103.35c0-1.17-.94-2.11-2.11-2.11h0l-98.75.16c-.8.01-1.43.67-1.42,1.47h0c1,57.02-.6,118.47-.76,179.95-.21,80.06-.33,181.32-.36,303.78,0,34.72,2.27,69.56,2.6,104.9.03,2.67.78,10.57,2.27,23.72.53,4.69,2.58,7.62,7.33,7.75,23.99.65,53.87.76,89.64.31.76-.01,1.38-.64,1.38-1.42v-308.06c0-.8.64-1.44,1.42-1.44l97.35-.16c.45,0,.82.37.82.82h0v101.88c0,2.12,1.72,3.84,3.84,3.84h102.35c.85,0,1.53.69,1.53,1.53h0s-.29,96.68-.29,96.68ZM4873.03,298.46v413.79c0,.87-.71,1.58-1.58,1.58l-101.99.18c-1.31,0-2.38,1.06-2.38,2.38h0s.16,95.31.16,95.31c0,1.61,1.3,2.91,2.91,2.91h302.16c1.42,0,2.58-1.15,2.58-2.58h0v-96.82c0-.85-.69-1.53-1.53-1.53h0l-99.53.16c-.74,0-1.33-.59-1.33-1.31h0v-413.88c0-.99.81-1.8,1.8-1.8h0l98.22-.18c1.44,0,2.6-1.16,2.6-2.6l-.16-99.97c0-1.08-.88-1.95-1.95-1.95h-303.98c-1.01,0-1.82.83-1.82,1.84l.16,100.13c0,1.77,1.43,3.2,3.2,3.2,0,0,.02,0,.02,0l101.15-.16c.72,0,1.31.59,1.31,1.31ZM5527.45,193.56c0-.82-.67-1.49-1.49-1.49h-262.53c-.82,0-1.49.67-1.49,1.49v102.21c0,.82.67,1.49,1.49,1.49h262.53c.82,0,1.49-.67,1.49-1.49h0v-102.21ZM5253.68,298.32h-98.17c-.36,0-.64.29-.64.64v406.92c0,3.7,1.24,6.71,2.78,6.71h93.91c1.53,0,2.78-3,2.78-6.71h0v-406.92c0-.36-.29-.64-.64-.64ZM4003.66,609.41c.6,0,1.09.49,1.09,1.09,0,0,0,.01,0,.02-1.17,67.92-1.15,135.49.07,202.7.02,1.46,1.23,2.62,2.69,2.6.02,0,.03,0,.05,0l90.66-3.07c1.43-.05,2.59-1.19,2.64-2.62,1-22.41,2.07-49.57,2.11-72.65.28-116.55.41-232.24.4-347.07-.01-27.91.27-58,.84-90.26.01-.98-.77-1.79-1.75-1.8,0,0-.01,0-.02,0h-95.06c-1.79,0-3.24,1.45-3.24,3.24v200.65c0,.81-.66,1.47-1.47,1.47h-206.65c-.83,0-1.51-.68-1.51-1.51h0v-201.43c0-1.23-.99-2.22-2.22-2.22h-97.84c-1.37,0-2.48,1.1-2.49,2.47-.99,158.21-.52,313.84,1.42,466.87.19,15.83.91,30.08,2.15,42.76.19,1.99,1.87,3.52,3.89,3.53l93.15.44c.9,0,1.62-.72,1.62-1.6v-202.67c0-.52.42-.93.93-.93h208.54ZM5622.91,300.46c0-1.23-.99-2.22-2.22-2.22h-90.84c-1.23,0-2.22.99-2.22,2.22v409.74c0,1.23.99,2.22,2.22,2.22h90.84c1.23,0,2.22-.99,2.22-2.22v-409.74ZM5527.9,715.43c0-1.12-.91-2.02-2.02-2.02h0l-269.02.47c-1.12,0-2.02.91-2.02,2.02h0s.17,97.02.17,97.02c0,1.12.91,2.02,2.02,2.02h0l269.02-.47c1.12,0,2.02-.91,2.02-2.02h0s-.17-97.02-.17-97.02Z"/>
  <path class="cls-2" d="M1472.61,91.72h1051.37c1.37,0,2.49,1.11,2.49,2.49-.11,204.76-.44,330.21.73,443.97.22,23.05,1.67,49.64,3.89,68.59.13,1.11.99,2,2.11,2.2,2.31.41,4.18.62,5.6.62,103.46.27,182.67,1.04,237.63,2.33,10.01.24,20.74.58,32.18,1.04,9.48.38,30.74,5.62,30.74,17.88.13,86.07.04,178.79-.29,278.15,0,.65-.54,1.18-1.2,1.18h-1364.74c-1.05,0-1.91-.85-1.91-1.89h0l-.18-101.84c0-1.29-1.04-2.33-2.33-2.33h-93.64c-2.05,0-3.71,1.65-3.71,3.69h0v100.61c0,1.3-1.05,2.35-2.35,2.35h0l-695.44-3.33c-1.14,0-2.1-.86-2.2-2-.64-6.65-1.03-13.41-1.18-20.28-1.24-62.06-1.92-121.98-2.04-179.77,0-1.66-1.35-3.01-3.02-3.02l-269.08-1.29c-1.99,0-3.66,1.5-3.84,3.49-.15,1.41-.21,4.23-.18,8.46.27,64.94.04,122.49-.67,172.64-.07,5.18-.34,8.78-.8,10.79-.18.79-.5,1.54-.96,2.2-4.32,6.38-10.88,9.68-19.66,9.88-84.52,2.1-166.2,2.19-245.03.27-9.17-.22-17.15-1.17-23.94-2.84-3.95-.98-5.4-3.78-5.8-7.88-1.35-13.33-2.19-24.1-2.53-32.32-3.6-88.2-3.31-182.44-4.35-280.1-1.42-134.24-1.15-265.24-.8-395.15.07-29.24.78-60.24,2.13-92.97.05-1.09.92-1.95,2-1.98,21.79-.58,46.35-2.27,71.23-2.6,23.44-.3,59.32-.51,107.66-.64,280.58-.78,597.03-.91,949.35-.38,37.83.07,100.59-.91,149.57-.4,1.19.01,2.15.97,2.15,2.15v102.19c0,1.23.99,2.22,2.22,2.22h95c1.35,0,2.44-1.09,2.44-2.44v-102.57c0-.76.62-1.38,1.38-1.38ZM1268.62,400.85v209.18c0,.58-.47,1.04-1.04,1.04h-95.2c-1.55,0-2.8,1.25-2.8,2.8h0l.33,199.48c0,.75.61,1.35,1.35,1.35l94.44-.16c.86,0,1.59-.64,1.69-1.49l2.04-16.61c.04-.28.13-.54.27-.78,3.39-5.94,5.28-14.13,5.66-24.59.76-20.67,1.23-39.85,1.42-57.53.01-.58.49-1.04,1.07-1.04l91.4-.16c1.2,0,2.18-.97,2.18-2.18h0l-.18-100.02c0-.69.57-1.24,1.27-1.24h105.86c.7,0,1.27.57,1.27,1.27h0l.16,100.57c0,.98.81,1.78,1.8,1.78h0l96.88-.16c.32,0,.58.25.58.56,0,0,0,.01,0,.02-.33,19.31.04,40.45,1.09,63.43.31,6.53,1.3,12.07,2.98,16.61,2.91,7.86,3.86,13.08,4.71,19.92.11.87.85,1.53,1.73,1.53l89.2-.16c1.24,0,2.24-1,2.24-2.24h0v-199.72c0-.76-.62-1.38-1.38-1.38h-97.08c-.92,0-1.67-.75-1.67-1.67v-208.05c0-.82.67-1.49,1.49-1.49h0l95.91-.16c1.52,0,2.75-1.24,2.75-2.78v-203.43c0-1.03-.85-1.87-1.89-1.87h0l-94.8.16c-.81,0-1.5.58-1.64,1.38-.67,3.64-.99,8.53-.98,14.66.13,46.86.13,76.41-.02,88.64-.01,1.06-.88,1.91-1.95,1.91l-97.82.18c-1.4,0-2.53,1.12-2.53,2.51h0v98.11c0,.9-.72,1.62-1.6,1.62h-104.83c-.94,0-1.71-.77-1.71-1.71h0v-98.15c0-1.31-1.05-2.38-2.35-2.38h-99.19c-.75,0-1.35-.61-1.35-1.35l-.18-103.06c0-1.29-1.03-2.33-2.31-2.33h0l-93.31.16c-1.57.01-2.84,1.28-2.84,2.84v203.23c0,1.29,1.04,2.33,2.33,2.33h0l95.82-.16c.42,0,.76.33.76.73h0ZM2738.04,713.16c-107.19,1.11-210.61,1.18-310.26.2-.52,0-.93-.42-.93-.93h0s-.87-519.49-.87-519.49c0-.88-.72-1.6-1.6-1.6h0l-100.39.18c-.9,0-1.62.74-1.62,1.64l1.02,619.33c0,1.44,1.16,2.6,2.6,2.6h.02l410.74-.67c1.24,0,2.24-1,2.24-2.24h0l-.18-98.24c0-.43-.34-.78-.76-.78,0,0-.01,0-.02,0ZM293.77,502.86c-.53-2.22-.8-3.8-.8-4.73.38-99.56.54-166.51.47-200.85,0-.23.19-.42.42-.42h314.46c1.15,0,2.09-.92,2.09-2.07l-.18-100.28c0-1.45-1.17-2.62-2.62-2.62H192.58c-1.12,0-2.03.91-2.04,2.04-.84,147.48-.73,305.09-.24,496.77.09,36.69,1.07,71.41,3.29,103.68.36,5.23,1.27,10.37,2.73,15.44.58,1.99,2.37,3.39,4.44,3.47,28.46,1.04,56.93.61,85.4-1.27,4.01-.27,6.03-2.52,6.06-6.77.41-64.86.66-129.5.73-193.94,0-.88.72-1.6,1.6-1.6h0l313.39-.53c1.2,0,2.18-.98,2.18-2.2h0l-.16-100.55c0-1.48-1.2-2.69-2.69-2.69h-312.44c-.51,0-.95-.36-1.07-.87ZM876.62,297.95v414.16c0,.91-.75,1.64-1.67,1.64l-104.04.18c-1.12,0-2.02.9-2.02,2.02h0s.16,95.57.16,95.57c.01,1.66,1.36,3,3.02,3h304.13c.92,0,1.68-.74,1.69-1.67l.47-98.13c0-.55-.45-1-1-1h-96.33c-.9,0-1.62-.73-1.62-1.62v-413.68c0-.8.64-1.44,1.42-1.44h0l93.88-.16c1.72,0,3.11-1.39,3.11-3.11,0,0,0-.01,0-.02l-.16-100.02c0-.91-.75-1.64-1.67-1.64h-305.82c-.72,0-1.31.59-1.31,1.31h0c-.12,23.28.44,46.52,1.67,69.72.44,8.53-.91,27.19,9.2,30.25,4.06,1.23,9.54,2,16.46,2.31,22.43,1.01,48.89,1.43,79.36,1.27.59,0,1.07.47,1.07,1.04ZM1896.43,502.06h207.14c.77,0,1.4-.63,1.4-1.4h0v-96.97c0-1.23-.99-2.22-2.22-2.22h-206.69c-.59,0-1.07-.48-1.07-1.07v-101.41c0-1.17.95-2.11,2.13-2.11h305c1.08,0,1.95-.88,1.95-1.95h0v-101.7c0-1.01-.83-1.82-1.84-1.82,0,0-.02,0-.02,0-43.27.77-82.48,1.09-117.65.96-103.06-.38-195.79.36-290.76-.8-.82-.01-1.5.64-1.51,1.47,0,0,0,.02,0,.02v618.66c0,1.66,1.34,3,3,3h405.88c1.58,0,2.87-1.27,2.87-2.84h0v-97.31c0-.5-.41-.91-.91-.91h-306.6c-.87,0-1.58-.71-1.58-1.58h0v-208.51c0-.82.67-1.49,1.49-1.49ZM713.49,300.48c0-1.24-1-2.24-2.24-2.24h-98.39c-1.24,0-2.24,1-2.24,2.24h0v199.5c0,1.24,1,2.24,2.24,2.24h98.39c1.24,0,2.24-1,2.24-2.24h0v-199.5Z"/>
  <path class="cls-1" d="M1268.62,400.85c0-.4-.34-.73-.76-.73h0l-95.82.16c-1.29,0-2.33-1.04-2.33-2.33h0v-203.23c0-1.56,1.27-2.83,2.84-2.84l93.31-.16c1.28,0,2.31,1.04,2.31,2.33h0l.18,103.06c0,.75.61,1.35,1.35,1.35h99.19c1.3,0,2.35,1.06,2.35,2.38h0v98.15c0,.94.77,1.71,1.71,1.71h104.83c.88,0,1.6-.73,1.6-1.62v-98.11c0-1.39,1.13-2.51,2.53-2.51h0l97.82-.18c1.07,0,1.94-.85,1.95-1.91.15-12.23.16-41.78.02-88.64-.01-6.13.31-11.02.98-14.66.14-.8.83-1.38,1.64-1.38l94.8-.16c1.04,0,1.89.84,1.89,1.87h0v203.43c0,1.53-1.23,2.78-2.75,2.78l-95.91.16c-.82,0-1.49.67-1.49,1.49h0v208.05c0,.92.75,1.67,1.67,1.67h97.08c.76,0,1.38.62,1.38,1.38v199.72c0,1.24-1,2.24-2.24,2.24h0l-89.2.16c-.88,0-1.62-.66-1.73-1.53-.84-6.84-1.8-12.06-4.71-19.92-1.67-4.55-2.67-10.08-2.98-16.61-1.05-22.98-1.41-44.13-1.09-63.43.01-.31-.24-.56-.55-.58,0,0-.01,0-.02,0l-96.88.16c-.99,0-1.8-.8-1.8-1.78h0s-.16-100.57-.16-100.57c0-.7-.57-1.27-1.27-1.27h-105.86c-.7,0-1.27.56-1.27,1.24h0l.18,100.02c0,1.2-.97,2.18-2.18,2.18h0l-91.4.16c-.58,0-1.05.46-1.07,1.04-.19,17.68-.67,36.86-1.42,57.53-.39,10.45-2.27,18.65-5.66,24.59-.13.24-.22.5-.27.78l-2.04,16.61c-.1.85-.82,1.48-1.69,1.49l-94.44.16c-.75,0-1.35-.61-1.35-1.35l-.33-199.48c0-1.55,1.25-2.8,2.8-2.8h95.2c.58,0,1.04-.47,1.04-1.04h0v-209.18Z"/>
  <path class="cls-1" d="M2738.04,713.16c.42-.01.76.33.78.75,0,0,0,.01,0,.02l.18,98.24c0,1.24-1,2.24-2.24,2.24h0l-410.74.67c-1.44.01-2.61-1.14-2.62-2.58,0,0,0-.01,0-.02l-1.02-619.33c0-.91.73-1.64,1.62-1.64l100.39-.18c.88,0,1.6.72,1.6,1.6h0l.87,519.49c0,.52.42.93.93.93h0c99.65.98,203.07.91,310.26-.2Z"/>
  <path class="cls-1" d="M3179.86,504.4v308.11c0,1.05-.86,1.91-1.91,1.91l-102.59.18c-1.05,0-1.91-.86-1.91-1.91V193.85c0-1.05.86-1.91,1.91-1.91l102.41-.18c1.05,0,1.91.86,1.91,1.91h0s.18,102.48.18,102.48c0,1.05.86,1.91,1.91,1.91h87.42c1.05,0,1.91.86,1.91,1.91h0v98.99c0,1.05.86,1.91,1.91,1.91h0l99.04-.16c1.05,0,1.91.86,1.91,1.91l.18,99.62c0,1.05.86,1.91,1.91,1.91h103.37c1.05,0,1.91-.86,1.91-1.91h0V193.65c0-1.05.86-1.91,1.91-1.91l95.64-.16c1.05,0,1.91.86,1.91,1.91h0v619.08c0,1.05-.85,1.91-1.91,1.91h0l-103.15.18c-1.05,0-1.91-.86-1.91-1.91l-.18-98.42c0-1.05-.86-1.91-1.91-1.91h0l-95.22.16c-1.05,0-1.91-.86-1.91-1.91h0v-99.73c0-1.05-.86-1.91-1.91-1.91l-98.79.18c-1.05,0-1.91-.86-1.91-1.91v-103.06c0-1.05-.86-1.91-1.91-1.91l-88.31.16c-1.05,0-1.91.86-1.91,1.91Z"/>
  <path class="cls-1" d="M4004.9,294.9c0,1.09-.88,1.98-1.97,1.98h0l-205.85.36c-1.09,0-1.98-.88-1.98-1.97l-.18-101.15c0-1.09.88-1.98,1.97-1.98h0l205.85-.36c1.09,0,1.98.88,1.98,1.97l.18,101.15Z"/>
  <path class="cls-1" d="M4508.55,812.1c0,1.31-1.06,2.38-2.38,2.38h0l-98.7.18c-.69,0-1.25-.56-1.27-1.27-2.04-141.24-1.22-234.97-1.11-437.97.01-23.85.34-49.6.98-77.25.01-.6-.46-1.1-1.07-1.11,0,0-.01,0-.02,0l-194.39.33c-1.35,0-2.44-1.08-2.44-2.42v-100.84c0-.99.82-1.8,1.82-1.8h0l486.62-.82c1.25,0,2.27,1.01,2.27,2.27l.16,99.42c0,2.02-1.64,3.66-3.66,3.66h0l-184.35.31c-1.35,0-2.44,1.1-2.44,2.47v512.47Z"/>
  <path class="cls-1" d="M6065.48,712.29l-13.59-4.93.29-96.68c0-.85-.69-1.53-1.53-1.53h-102.35c-2.12,0-3.84-1.72-3.84-3.84v-101.88c0-.45-.37-.82-.82-.82h0l-97.35.16c-.79,0-1.42.65-1.42,1.44v308.06c0,.78-.61,1.41-1.38,1.42-35.77.44-65.65.34-89.64-.31-4.75-.13-6.8-3.07-7.33-7.75-1.48-13.15-2.24-21.06-2.27-23.72-.33-35.34-2.6-70.19-2.6-104.9.03-122.46.15-223.71.36-303.78.16-61.48,1.75-122.94.76-179.95-.01-.8.62-1.45,1.42-1.47h0l98.75-.16c1.17,0,2.11.94,2.11,2.11h0v103.35c0,.72.6,1.31,1.33,1.31h95.77c.83,0,1.51.69,1.51,1.53v99.37c0,.85.69,1.53,1.53,1.53,0,0,.01,0,.02,0l103.95-.16c1.03,0,1.87.83,1.87,1.84h0v100.37c0,.7.57,1.27,1.27,1.27h88.78c.98,0,1.78-.81,1.78-1.8V193.82c0-1.18.96-2.13,2.15-2.13h98.11c.94,0,1.71.77,1.71,1.71v618.17c0,1.84-1.48,3.33-3.31,3.33h-.02c-37.64-.28-63.06-.55-76.25-.8-7.06-.16-17.5,1.02-19.01-7.11-.64-3.36-1.13-8.22-1.47-14.57-1.41-26.15-1.85-52.25-1.33-78.29.01-1.17-.92-2.12-2.09-2.13,0,0-.01,0-.02,0l-75.83.29Z"/>
  <path class="cls-1" d="M293.77,502.86c.11.51.56.87,1.07.87h312.44c1.48,0,2.69,1.2,2.69,2.69l.16,100.55c0,1.21-.97,2.2-2.18,2.2h0l-313.39.53c-.88,0-1.6.72-1.6,1.6h0c-.07,64.44-.32,129.09-.73,193.94-.03,4.25-2.05,6.51-6.06,6.77-28.47,1.88-56.94,2.3-85.4,1.27-2.07-.08-3.86-1.47-4.44-3.47-1.47-5.06-2.38-10.21-2.73-15.44-2.22-32.27-3.2-66.99-3.29-103.68-.49-191.68-.6-349.29.24-496.77.01-1.13.92-2.04,2.04-2.04h415.03c1.45,0,2.62,1.17,2.62,2.62h0l.18,100.28c0,1.14-.93,2.07-2.09,2.07h-314.46c-.23,0-.42.19-.42.42.07,34.34-.08,101.29-.47,200.85,0,.93.27,2.51.8,4.73Z"/>
  <path class="cls-1" d="M876.62,297.95c0-.58-.48-1.04-1.07-1.04-30.47.16-56.93-.26-79.36-1.27-6.91-.31-12.4-1.08-16.46-2.31-10.11-3.07-8.75-21.72-9.2-30.25-1.23-23.2-1.78-46.44-1.67-69.72,0-.72.59-1.31,1.31-1.31h305.82c.92,0,1.67.74,1.67,1.64l.16,100.02c.01,1.72-1.37,3.12-3.09,3.13,0,0-.01,0-.02,0l-93.88.16c-.79,0-1.42.65-1.42,1.44h0v413.68c0,.9.73,1.62,1.62,1.62h96.33c.55,0,1,.45,1,1h0l-.47,98.13c-.01.92-.76,1.67-1.69,1.67h-304.13c-1.66,0-3.01-1.34-3.02-3l-.16-95.57c0-1.12.9-2.02,2.02-2.02h0l104.04-.18c.92,0,1.67-.74,1.67-1.64v-414.16Z"/>
  <path class="cls-1" d="M1896.43,502.06c-.82,0-1.49.67-1.49,1.49v208.51c0,.87.71,1.58,1.58,1.58h306.6c.5,0,.91.41.91.91v97.31c0,1.57-1.28,2.84-2.87,2.84h-405.88c-1.66,0-3-1.34-3-3h0V193.05c0-.82.67-1.49,1.49-1.49,0,0,.02,0,.02,0,94.97,1.16,187.7.42,290.76.8,35.17.13,74.38-.19,117.65-.96,1.02-.01,1.85.79,1.87,1.8,0,0,0,.01,0,.02v101.7c0,1.08-.88,1.95-1.95,1.95h-305c-1.18,0-2.13.94-2.13,2.11v101.41c0,.59.48,1.07,1.07,1.07h206.69c1.23,0,2.22.99,2.22,2.22v96.97c0,.77-.63,1.4-1.4,1.4h-207.14Z"/>
  <path class="cls-1" d="M4873.03,298.46c0-.72-.59-1.31-1.31-1.31l-101.15.16c-1.77.01-3.21-1.41-3.22-3.18v-.02l-.16-100.13c0-1.02.82-1.84,1.82-1.84h303.98c1.08,0,1.95.87,1.95,1.95h0s.16,99.97.16,99.97c0,1.44-1.16,2.6-2.6,2.6l-98.22.18c-.99,0-1.8.81-1.8,1.8h0v413.88c0,.72.6,1.31,1.33,1.31h0l99.53-.16c.85,0,1.53.69,1.53,1.53h0v96.82c0,1.42-1.15,2.58-2.58,2.58h-302.16c-1.61,0-2.91-1.3-2.91-2.91l-.16-95.31c0-1.31,1.06-2.38,2.38-2.38h0l101.99-.18c.87,0,1.58-.71,1.58-1.58v-413.79Z"/>
  <path class="cls-1" d="M5527.45,295.77c0,.82-.67,1.49-1.49,1.49h-262.53c-.82,0-1.49-.67-1.49-1.49v-102.21c0-.82.67-1.49,1.49-1.49h262.53c.82,0,1.49.67,1.49,1.49h0v102.21Z"/>
  <path class="cls-3" d="M3676.8,194.91l4.46,2.64c-2.46,1.36-3.95.48-4.46-2.64Z"/>
  <path class="cls-3" d="M3688.75,197.15c-.65,1.11-1.66,1.13-3.02.07.39-.52.86-.8,1.42-.84.58-.04,1.11.21,1.6.78Z"/>
  <path class="cls-1" d="M713.49,499.98c0,1.24-1,2.24-2.24,2.24h-98.39c-1.24,0-2.24-1-2.24-2.24h0v-199.5c0-1.24,1-2.24,2.24-2.24h98.39c1.24,0,2.24,1,2.24,2.24h0v199.5Z"/>
  <path class="cls-1" d="M5253.68,298.32c.36,0,.64.29.64.64v406.92c0,3.7-1.24,6.71-2.78,6.71h-93.91c-1.53,0-2.78-3-2.78-6.71h0v-406.92c0-.36.29-.64.64-.64h98.17Z"/>
  <path class="cls-1" d="M4003.66,609.41h-208.54c-.52,0-.93.42-.93.93h0v202.67c0,.88-.73,1.6-1.62,1.6l-93.15-.44c-2.01-.01-3.69-1.54-3.89-3.53-1.24-12.67-1.96-26.93-2.15-42.76-1.94-153.03-2.41-308.66-1.42-466.87.01-1.37,1.12-2.47,2.49-2.47h97.84c1.23,0,2.22.99,2.22,2.22v201.43c0,.83.68,1.51,1.51,1.51h206.65c.81,0,1.47-.66,1.47-1.47h0v-200.65c0-1.79,1.45-3.24,3.24-3.24h95.06c.98,0,1.78.8,1.78,1.78,0,0,0,.02,0,.02-.58,32.26-.86,62.35-.84,90.26.01,114.83-.12,230.52-.4,347.07-.04,23.08-1.11,50.24-2.11,72.65-.06,1.43-1.21,2.58-2.64,2.62l-90.66,3.07c-1.46.05-2.68-1.09-2.73-2.55,0-.02,0-.03,0-.05-1.21-67.21-1.24-134.77-.07-202.7.01-.6-.46-1.1-1.07-1.11,0,0-.01,0-.02,0Z"/>
  <path class="cls-1" d="M5622.91,710.2c0,1.23-.99,2.22-2.22,2.22h-90.84c-1.23,0-2.22-.99-2.22-2.22v-409.74c0-1.23.99-2.22,2.22-2.22h90.84c1.23,0,2.22.99,2.22,2.22v409.74Z"/>
  <path class="cls-1" d="M5528.07,812.44c0,1.12-.9,2.02-2.02,2.02h0l-269.02.47c-1.12,0-2.02-.9-2.02-2.02h0s-.17-97.02-.17-97.02c0-1.12.9-2.02,2.02-2.02h0l269.02-.47c1.12,0,2.02.9,2.02,2.02h0l.17,97.02Z"/>
</svg>